<svg xmlns="http://www.w3.org/2000/svg" xmlns:xlink="http://www.w3.org/1999/xlink" viewBox="0 0 16 13" id="svg12101136331"><g id="ss12101136331_1"><path d="M 0 13 L 0 0 L 16 0 L 16 13 Z" fill="transparent"></path><path d="M 14.786 1.081 C 14.817 0.956 14.767 0.827 14.661 0.755 C 14.555 0.683 14.416 0.684 14.312 0.758 C 13.803 1.116 13.245 1.398 12.656 1.595 C 12.265 1.202 11.773 0.922 11.232 0.787 C 10.626 0.635 9.987 0.673 9.403 0.896 C 8.818 1.119 8.317 1.516 7.965 2.034 C 7.615 2.55 7.431 3.162 7.439 3.787 L 7.439 4.092 C 6.514 4.072 5.604 3.846 4.776 3.429 C 3.858 2.967 3.069 2.285 2.479 1.445 C 2.415 1.355 2.308 1.305 2.198 1.316 C 2.088 1.327 1.993 1.396 1.948 1.497 L 2.228 1.621 C 1.948 1.497 1.948 1.496 1.948 1.497 L 1.947 1.499 L 1.945 1.503 L 1.939 1.517 C 1.934 1.529 1.927 1.546 1.918 1.569 C 1.9 1.613 1.875 1.677 1.845 1.759 C 1.786 1.922 1.709 2.156 1.634 2.445 C 1.485 3.02 1.345 3.818 1.385 4.7 C 1.425 5.584 1.647 6.558 2.228 7.475 C 2.737 8.279 3.514 9.025 4.659 9.624 C 3.553 10.252 2.291 10.561 1.014 10.51 C 0.872 10.505 0.745 10.597 0.707 10.734 C 0.668 10.87 0.729 11.015 0.853 11.084 C 3.696 12.664 6.872 12.672 9.345 11.355 C 11.826 10.035 13.569 7.399 13.569 3.767 L 13.569 3.766 C 13.569 3.63 13.559 3.496 13.541 3.362 C 14.148 2.724 14.578 1.938 14.786 1.081 Z" fill="var(--token-9295f697-70ab-4b76-834a-2ceab385a691, rgb(32, 34, 33)) /* {&quot;name&quot;:&quot;Primary&quot;} */"></path><path d="M 14.786 1.081 L 15.272 1.199 L 15.272 1.199 Z M 14.312 0.758 L 14.6 1.166 L 14.6 1.166 Z M 12.656 1.595 L 12.301 1.948 C 12.435 2.082 12.634 2.13 12.814 2.069 Z M 11.232 0.787 L 11.354 0.302 L 11.354 0.302 Z M 9.403 0.896 L 9.224 0.429 L 9.224 0.429 Z M 7.965 2.034 L 7.552 1.753 L 7.552 1.753 Z M 7.439 3.787 L 7.939 3.787 L 7.939 3.781 Z M 7.439 4.092 L 7.428 4.592 C 7.562 4.595 7.692 4.544 7.788 4.45 C 7.884 4.356 7.939 4.227 7.939 4.092 Z M 4.776 3.429 L 5 2.982 L 5 2.982 Z M 2.479 1.445 L 2.888 1.158 L 2.888 1.158 Z M 2.198 1.316 L 2.247 1.814 L 2.247 1.814 Z M 1.948 1.497 L 1.491 1.293 L 1.49 1.295 Z M 2.025 2.078 C 2.277 2.19 2.573 2.076 2.685 1.824 C 2.797 1.572 2.683 1.276 2.431 1.164 Z M 1.947 1.499 L 1.489 1.297 L 1.489 1.298 Z M 1.945 1.503 L 1.487 1.303 L 1.486 1.305 Z M 1.939 1.517 L 1.48 1.319 L 1.479 1.322 Z M 1.918 1.569 L 1.454 1.381 L 1.454 1.381 Z M 1.845 1.759 L 2.315 1.929 L 2.315 1.929 Z M 1.634 2.445 L 1.15 2.319 L 1.15 2.319 Z M 1.385 4.7 L 1.885 4.677 L 1.885 4.677 Z M 2.228 7.475 L 2.65 7.207 L 2.65 7.207 Z M 4.659 9.624 L 4.906 10.059 C 5.065 9.969 5.162 9.799 5.159 9.616 C 5.155 9.433 5.053 9.266 4.891 9.181 Z M 1.014 10.51 L 0.994 11.01 L 0.994 11.01 Z M 0.707 10.734 L 1.188 10.869 L 1.188 10.869 Z M 0.853 11.084 L 0.61 11.521 L 0.61 11.522 Z M 9.345 11.355 L 9.58 11.797 L 9.58 11.797 Z M 13.569 3.766 L 14.069 3.766 L 14.069 3.764 Z M 13.541 3.362 L 13.179 3.017 C 13.074 3.127 13.025 3.279 13.045 3.43 Z M 15.272 1.199 C 15.352 0.872 15.22 0.53 14.942 0.341 L 14.38 1.168 C 14.313 1.123 14.281 1.041 14.3 0.962 Z M 14.942 0.341 C 14.664 0.152 14.298 0.155 14.024 0.349 L 14.6 1.166 C 14.534 1.213 14.446 1.213 14.38 1.168 Z M 14.024 0.349 C 13.555 0.679 13.041 0.939 12.497 1.121 L 12.814 2.069 C 13.45 1.857 14.052 1.553 14.6 1.166 Z M 13.01 1.243 C 12.555 0.785 11.983 0.459 11.354 0.302 L 11.111 1.272 C 11.563 1.385 11.974 1.619 12.301 1.948 Z M 11.354 0.302 C 10.648 0.125 9.904 0.169 9.224 0.429 L 9.581 1.363 C 10.07 1.177 10.604 1.145 11.111 1.272 Z M 9.224 0.429 C 8.544 0.688 7.961 1.151 7.552 1.753 L 8.379 2.314 C 8.673 1.882 9.092 1.55 9.581 1.363 Z M 7.552 1.753 C 7.143 2.354 6.929 3.066 6.939 3.793 L 7.939 3.781 C 7.932 3.258 8.086 2.747 8.379 2.314 Z M 6.939 3.787 L 6.939 4.092 L 7.939 4.092 L 7.939 3.787 Z M 7.45 3.592 C 6.599 3.574 5.762 3.366 5 2.982 L 4.551 3.875 C 5.446 4.326 6.429 4.57 7.428 4.592 Z M 5 2.982 C 4.157 2.557 3.431 1.931 2.888 1.158 L 2.07 1.732 C 2.707 2.64 3.56 3.376 4.551 3.875 Z M 2.888 1.158 C 2.721 0.92 2.439 0.79 2.15 0.818 L 2.247 1.814 C 2.177 1.82 2.11 1.789 2.07 1.732 Z M 2.15 0.818 C 1.861 0.846 1.609 1.028 1.491 1.293 L 2.405 1.7 C 2.376 1.763 2.316 1.807 2.247 1.814 Z M 1.745 1.953 L 2.025 2.078 L 2.431 1.164 L 2.151 1.04 Z M 2.431 1.164 C 2.291 1.102 2.221 1.071 2.186 1.055 C 2.169 1.048 2.16 1.043 2.154 1.041 C 2.154 1.041 2.147 1.038 2.141 1.035 C 2.139 1.035 2.135 1.033 2.129 1.031 C 2.126 1.029 2.111 1.024 2.093 1.018 C 2.083 1.015 2.064 1.01 2.039 1.005 C 2.019 1.001 1.964 0.992 1.895 0.999 C 1.814 1.008 1.7 1.041 1.601 1.137 C 1.557 1.179 1.529 1.221 1.513 1.25 C 1.505 1.264 1.499 1.276 1.496 1.283 C 1.495 1.285 1.493 1.289 1.492 1.291 C 1.492 1.292 1.491 1.293 1.491 1.293 L 2.405 1.7 C 2.411 1.685 2.376 1.778 2.295 1.856 C 2.196 1.952 2.082 1.985 2.001 1.994 C 1.931 2.001 1.877 1.992 1.857 1.988 C 1.832 1.984 1.813 1.978 1.803 1.975 C 1.785 1.97 1.77 1.964 1.767 1.963 C 1.762 1.961 1.757 1.959 1.756 1.958 C 1.751 1.956 1.747 1.954 1.75 1.956 C 1.754 1.957 1.762 1.961 1.78 1.969 C 1.815 1.984 1.885 2.016 2.025 2.078 Z M 1.49 1.295 L 1.489 1.297 L 2.404 1.7 L 2.405 1.698 Z M 1.489 1.298 L 1.487 1.303 L 2.403 1.703 L 2.405 1.699 Z M 1.486 1.305 L 1.48 1.319 L 2.398 1.715 L 2.404 1.7 Z M 1.479 1.322 C 1.473 1.336 1.464 1.356 1.454 1.381 L 2.381 1.756 C 2.389 1.737 2.395 1.722 2.399 1.712 Z M 1.454 1.381 C 1.434 1.431 1.407 1.501 1.375 1.589 L 2.315 1.929 C 2.343 1.853 2.365 1.795 2.381 1.756 Z M 1.375 1.589 C 1.311 1.765 1.229 2.014 1.15 2.319 L 2.118 2.57 C 2.188 2.299 2.261 2.079 2.315 1.929 Z M 1.15 2.319 C 0.993 2.927 0.843 3.777 0.886 4.723 L 1.885 4.677 C 1.848 3.859 1.978 3.113 2.118 2.57 Z M 0.886 4.723 C 0.929 5.673 1.168 6.736 1.805 7.742 L 2.65 7.207 C 2.126 6.38 1.922 5.495 1.885 4.677 Z M 1.805 7.742 C 2.365 8.627 3.211 9.431 4.427 10.067 L 4.891 9.181 C 3.818 8.62 3.109 7.932 2.65 7.207 Z M 4.412 9.19 C 3.387 9.772 2.218 10.058 1.034 10.011 L 0.994 11.01 C 2.365 11.064 3.719 10.733 4.906 10.059 Z M 1.034 10.011 C 0.661 9.996 0.326 10.239 0.225 10.599 L 1.188 10.869 C 1.164 10.955 1.084 11.013 0.994 11.01 Z M 0.225 10.599 C 0.124 10.958 0.284 11.34 0.61 11.521 L 1.096 10.647 C 1.174 10.691 1.212 10.782 1.188 10.869 Z M 0.61 11.521 C 3.592 13.178 6.947 13.198 9.58 11.797 L 9.11 10.914 C 6.796 12.145 3.801 12.15 1.096 10.647 Z M 9.58 11.797 C 12.232 10.385 14.069 7.574 14.069 3.767 L 13.069 3.767 C 13.069 7.224 11.419 9.685 9.11 10.914 Z M 14.069 3.767 L 14.069 3.766 L 13.069 3.766 L 13.069 3.767 Z M 14.069 3.764 C 14.068 3.607 14.058 3.45 14.036 3.294 L 13.045 3.43 C 13.061 3.541 13.068 3.654 13.069 3.767 Z M 13.903 3.706 C 14.57 3.005 15.043 2.141 15.272 1.199 L 14.301 0.962 C 14.112 1.734 13.725 2.443 13.179 3.017 Z" fill="var(--token-9295f697-70ab-4b76-834a-2ceab385a691, rgb(32, 34, 33)) /* {&quot;name&quot;:&quot;Primary&quot;} */"></path></g></svg>