<svg width="15" height="14" viewBox="0 0 15 14" fill="#9CA3AF" xmlns="http://www.w3.org/2000/svg">
<path d="M8.85547 13.0215V12.0781H12.998C13.1113 12.0781 13.1953 12.0508 13.25 11.9961C13.3047 11.9414 13.332 11.8555 13.332 11.7383V4.69531C13.332 4.57812 13.3047 4.49219 13.25 4.4375C13.1953 4.38281 13.1113 4.35547 12.998 4.35547H9.27734V3.41211H13.3086C13.6055 3.41211 13.8398 3.50977 14.0117 3.70508C14.1875 3.89648 14.2754 4.1543 14.2754 4.47852V11.9551C14.2754 12.2793 14.1875 12.5371 14.0117 12.7285C13.8398 12.9238 13.6055 13.0215 13.3086 13.0215H8.85547ZM11.1055 6.63477C10.9766 6.63477 10.9121 6.56836 10.9121 6.43555V5.52148C10.9121 5.38867 10.9766 5.32227 11.1055 5.32227H12.0488C12.1816 5.32227 12.248 5.38867 12.248 5.52148V6.43555C12.248 6.56836 12.1816 6.63477 12.0488 6.63477H11.1055ZM11.1055 8.87305C10.9766 8.87305 10.9121 8.80664 10.9121 8.67383V7.75977C10.9121 7.62695 10.9766 7.56055 11.1055 7.56055H12.0488C12.1816 7.56055 12.248 7.62695 12.248 7.75977V8.67383C12.248 8.80664 12.1816 8.87305 12.0488 8.87305H11.1055ZM11.1055 11.1113C10.9766 11.1113 10.9121 11.0449 10.9121 10.9121V9.99805C10.9121 9.86523 10.9766 9.79883 11.1055 9.79883H12.0488C12.1816 9.79883 12.248 9.86523 12.248 9.99805V10.9121C12.248 11.0449 12.1816 11.1113 12.0488 11.1113H11.1055ZM0.494141 11.9551V1.5957C0.494141 1.26758 0.580078 1.00781 0.751953 0.816406C0.927734 0.625 1.16602 0.529297 1.4668 0.529297H8.85547C9.15234 0.529297 9.38672 0.625 9.55859 0.816406C9.73438 1.00781 9.82227 1.26758 9.82227 1.5957V11.9551C9.82227 12.2793 9.73438 12.5371 9.55859 12.7285C9.38672 12.9238 9.15234 13.0215 8.85547 13.0215H1.4668C1.16602 13.0215 0.927734 12.9238 0.751953 12.7285C0.580078 12.5371 0.494141 12.2793 0.494141 11.9551ZM1.4375 11.7383C1.4375 11.8555 1.46484 11.9414 1.51953 11.9961C1.57422 12.0508 1.66016 12.0781 1.77734 12.0781H8.54492C8.6582 12.0781 8.74219 12.0508 8.79688 11.9961C8.85156 11.9414 8.87891 11.8555 8.87891 11.7383V1.8125C8.87891 1.69531 8.85156 1.60937 8.79688 1.55469C8.74219 1.5 8.6582 1.47266 8.54492 1.47266H1.77734C1.66016 1.47266 1.57422 1.5 1.51953 1.55469C1.46484 1.60937 1.4375 1.69531 1.4375 1.8125V11.7383ZM3.11914 12.5234V10.3496C3.11914 10.0957 3.17578 9.91016 3.28906 9.79297C3.40625 9.67188 3.58398 9.61133 3.82227 9.61133H6.49414C6.73633 9.61133 6.91406 9.67188 7.02734 9.79297C7.14062 9.91016 7.19727 10.0957 7.19727 10.3496V12.5234H6.42969V10.5664C6.42969 10.4414 6.36719 10.3789 6.24219 10.3789H4.07422C3.94922 10.3789 3.88672 10.4414 3.88672 10.5664V12.5234H3.11914ZM3.21289 4.0332C3.06055 4.0332 2.98438 3.95312 2.98438 3.79297V2.68555C2.98438 2.52539 3.06055 2.44531 3.21289 2.44531H4.35547C4.51562 2.44531 4.5957 2.52539 4.5957 2.68555V3.79297C4.5957 3.95312 4.51562 4.0332 4.35547 4.0332H3.21289ZM5.96094 4.0332C5.80469 4.0332 5.72656 3.95312 5.72656 3.79297V2.68555C5.72656 2.52539 5.80469 2.44531 5.96094 2.44531H7.09766C7.25781 2.44531 7.33789 2.52539 7.33789 2.68555V3.79297C7.33789 3.95312 7.25781 4.0332 7.09766 4.0332H5.96094ZM3.21289 6.35352C3.06055 6.35352 2.98438 6.27344 2.98438 6.11328V5.00586C2.98438 4.8457 3.06055 4.76562 3.21289 4.76562H4.35547C4.51562 4.76562 4.5957 4.8457 4.5957 5.00586V6.11328C4.5957 6.27344 4.51562 6.35352 4.35547 6.35352H3.21289ZM5.96094 6.35352C5.80469 6.35352 5.72656 6.27344 5.72656 6.11328V5.00586C5.72656 4.8457 5.80469 4.76562 5.96094 4.76562H7.09766C7.25781 4.76562 7.33789 4.8457 7.33789 5.00586V6.11328C7.33789 6.27344 7.25781 6.35352 7.09766 6.35352H5.96094ZM3.21289 8.67383C3.06055 8.67383 2.98438 8.59375 2.98438 8.43359V7.32617C2.98438 7.16602 3.06055 7.08594 3.21289 7.08594H4.35547C4.51562 7.08594 4.5957 7.16602 4.5957 7.32617V8.43359C4.5957 8.59375 4.51562 8.67383 4.35547 8.67383H3.21289ZM5.96094 8.67383C5.80469 8.67383 5.72656 8.59375 5.72656 8.43359V7.32617C5.72656 7.16602 5.80469 7.08594 5.96094 7.08594H7.09766C7.25781 7.08594 7.33789 7.16602 7.33789 7.32617V8.43359C7.33789 8.59375 7.25781 8.67383 7.09766 8.67383H5.96094Z" fill="#9CA3AF"/>
</svg>
