<svg width="10" height="13" viewBox="0 0 10 13" fill="#9CA3AF" xmlns="http://www.w3.org/2000/svg">
<path d="M4.98828 3.16602C4.72266 3.16602 4.48047 3.10156 4.26172 2.97266C4.04688 2.84375 3.875 2.67188 3.74609 2.45703C3.61719 2.23828 3.55273 1.99609 3.55273 1.73047C3.55273 1.46484 3.61719 1.22266 3.74609 1.00391C3.875 0.785156 4.04883 0.611328 4.26758 0.482422C4.48633 0.353516 4.72656 0.289062 4.98828 0.289062C5.25391 0.289062 5.49414 0.353516 5.70898 0.482422C5.92773 0.611328 6.10156 0.785156 6.23047 1.00391C6.35938 1.22266 6.42383 1.46484 6.42383 1.73047C6.42383 1.99609 6.35938 2.23828 6.23047 2.45703C6.10547 2.67188 5.93359 2.84375 5.71484 2.97266C5.5 3.10156 5.25781 3.16602 4.98828 3.16602ZM4.94727 8.29883C4.84961 8.29883 4.76562 8.32812 4.69531 8.38672C4.62891 8.44141 4.58008 8.52344 4.54883 8.63281L3.57031 12.4004C3.51562 12.6113 3.41406 12.7559 3.26562 12.834C3.12109 12.9121 2.96875 12.9336 2.80859 12.8984C2.65234 12.8633 2.52344 12.7812 2.42188 12.6523C2.32031 12.5234 2.2832 12.3574 2.31055 12.1543C2.31836 12.1035 2.3457 11.9805 2.39258 11.7852C2.43945 11.5938 2.49805 11.3594 2.56836 11.082C2.63867 10.8047 2.71289 10.5098 2.79102 10.1973C2.87305 9.88477 2.94922 9.57812 3.01953 9.27734C3.09375 8.97656 3.1582 8.70898 3.21289 8.47461C3.27148 8.23633 3.31055 8.05664 3.33008 7.93555C3.35352 7.80273 3.36914 7.62891 3.37695 7.41406C3.38477 7.19922 3.38867 6.9707 3.38867 6.72852C3.38867 6.48633 3.38672 6.25586 3.38281 6.03711C3.37891 5.81445 3.37695 5.62891 3.37695 5.48047C3.37695 5.39062 3.34375 5.32617 3.27734 5.28711C3.21484 5.24805 3.13867 5.24609 3.04883 5.28125L1.37891 5.94922C1.15625 6.03906 0.96875 6.04297 0.816406 5.96094C0.664062 5.875 0.566406 5.75586 0.523438 5.60352C0.476562 5.46289 0.488281 5.31445 0.558594 5.1582C0.628906 5.00195 0.767578 4.88086 0.974609 4.79492L2.7793 4.05664C2.98242 3.9707 3.17969 3.90234 3.37109 3.85156C3.56641 3.80078 3.76758 3.76367 3.97461 3.74023C4.11914 3.81445 4.27344 3.87109 4.4375 3.91016C4.60547 3.94531 4.77539 3.96289 4.94727 3.96289C5.12305 3.96289 5.29297 3.94531 5.45703 3.91016C5.62109 3.87109 5.77734 3.81445 5.92578 3.74023C6.12891 3.76367 6.32617 3.80078 6.51758 3.85156C6.71289 3.90234 6.91406 3.9707 7.12109 4.05664L8.92578 4.79492C9.13281 4.88086 9.26953 5.00195 9.33594 5.1582C9.40625 5.31445 9.41992 5.46289 9.37695 5.60352C9.33008 5.75586 9.23047 5.875 9.07812 5.96094C8.92578 6.04297 8.73828 6.03906 8.51562 5.94922L6.85156 5.28125C6.75781 5.24609 6.67773 5.24805 6.61133 5.28711C6.54883 5.32617 6.51758 5.39062 6.51758 5.48047C6.51758 5.62891 6.51562 5.81445 6.51172 6.03711C6.51172 6.25586 6.51172 6.48633 6.51172 6.72852C6.51172 6.9707 6.51562 7.19922 6.52344 7.41406C6.53125 7.62891 6.54688 7.80273 6.57031 7.93555C6.58984 8.05664 6.62695 8.23633 6.68164 8.47461C6.73633 8.70898 6.80078 8.97656 6.875 9.27734C6.94922 9.57812 7.02539 9.88477 7.10352 10.1973C7.18164 10.5098 7.25586 10.8047 7.32617 11.082C7.39648 11.3594 7.45508 11.5938 7.50195 11.7852C7.54883 11.9805 7.57617 12.1035 7.58398 12.1543C7.61523 12.3574 7.57812 12.5234 7.47266 12.6523C7.37109 12.7812 7.24023 12.8633 7.08008 12.8984C6.92383 12.9336 6.77148 12.9121 6.62305 12.834C6.47852 12.7559 6.37891 12.6113 6.32422 12.4004L5.3457 8.63281C5.31836 8.52344 5.26953 8.44141 5.19922 8.38672C5.12891 8.32812 5.04492 8.29883 4.94727 8.29883Z" fill="#9CA3AF"/>
</svg>
