<?xml version="1.0" encoding="UTF-8"?>
<!--Generator: Apple Native CoreSVG 232.5-->
<!DOCTYPE svg
PUBLIC "-//W3C//DTD SVG 1.1//EN"
       "http://www.w3.org/Graphics/SVG/1.1/DTD/svg11.dtd">
<svg version="1.1" xmlns="http://www.w3.org/2000/svg" xmlns:xlink="http://www.w3.org/1999/xlink" width="226.172" height="228.369">
 <g>
  <rect height="228.369" opacity="0" width="226.172" x="0" y="0"/>
  <path d="M0 93.1641C0 144.58 41.748 186.182 93.1641 186.182C112.939 186.182 131.104 180.029 146.191 169.482L200.684 224.121C203.76 227.051 207.568 228.369 211.523 228.369C220.02 228.369 226.172 221.924 226.172 213.428C226.172 209.326 224.561 205.664 222.07 202.881L167.871 148.535C179.443 133.008 186.182 113.965 186.182 93.1641C186.182 41.748 144.58 0 93.1641 0C41.748 0 0 41.748 0 93.1641ZM22.5586 93.1641C22.5586 54.0527 54.0527 22.5586 93.1641 22.5586C132.129 22.5586 163.77 54.0527 163.77 93.1641C163.77 132.129 132.129 163.77 93.1641 163.77C54.0527 163.77 22.5586 132.129 22.5586 93.1641ZM54.3457 93.1641C54.3457 98.4375 58.5938 102.686 64.0137 102.686L83.4961 102.686L83.4961 122.168C83.4961 127.588 87.7441 131.836 93.1641 131.836C98.4375 131.836 102.686 127.588 102.686 122.168L102.686 102.686L122.168 102.686C127.588 102.686 131.836 98.4375 131.836 93.1641C131.836 87.7441 127.588 83.4961 122.168 83.4961L102.686 83.4961L102.686 64.0137C102.686 58.5938 98.4375 54.3457 93.1641 54.3457C87.7441 54.3457 83.4961 58.5938 83.4961 64.0137L83.4961 83.4961L64.0137 83.4961C58.5938 83.4961 54.3457 87.7441 54.3457 93.1641Z" fill="#20222180" />
 </g>
</svg>

