<svg width="15" height="13" viewBox="0 0 15 13" fill="#9ca3af" xmlns="http://www.w3.org/2000/svg">
<path d="M5.75268 12.3426V8.07694C5.75268 7.94413 5.7937 7.83671 5.87573 7.75468C5.95776 7.67265 6.06714 7.63163 6.20386 7.63163H8.68823C8.82104 7.63163 8.92846 7.67265 9.0105 7.75468C9.09253 7.83671 9.13354 7.94413 9.13354 8.07694V12.3426H5.75268ZM3.46167 12.9461C3.0437 12.9461 2.71753 12.8328 2.48315 12.6062C2.25268 12.3797 2.13745 12.0613 2.13745 11.6512V5.17655L3.08081 4.53788V11.4109C3.08081 11.6023 3.12964 11.7488 3.22729 11.8504C3.32886 11.9519 3.47339 12.0027 3.66089 12.0027H11.1902C11.3777 12.0027 11.5203 11.9519 11.6179 11.8504C11.7156 11.7488 11.7644 11.6023 11.7644 11.4109V4.53202L12.7078 5.17655V11.6512C12.7078 12.0613 12.5925 12.3797 12.3621 12.6062C12.1316 12.8328 11.8074 12.9461 11.3894 12.9461H3.46167ZM0.449949 6.4246C0.449949 6.27225 0.512449 6.1453 0.637449 6.04374L6.74292 0.916786C6.96167 0.733192 7.19604 0.641396 7.44604 0.641396C7.69995 0.641396 7.93628 0.733192 8.15503 0.916786L14.2546 6.04374C14.3757 6.1453 14.4363 6.27811 14.4363 6.44218C14.4363 6.5828 14.3874 6.69413 14.2898 6.77616C14.1921 6.85429 14.0749 6.89335 13.9382 6.89335C13.8562 6.89335 13.78 6.87382 13.7097 6.83475C13.6433 6.79569 13.5808 6.75272 13.5222 6.70585L7.65698 1.78397C7.59057 1.72538 7.52026 1.69608 7.44604 1.69608C7.37573 1.69608 7.30737 1.72538 7.24096 1.78397L1.37573 6.70585C1.31323 6.75272 1.24682 6.79569 1.17651 6.83475C1.11011 6.87382 1.03589 6.89335 0.953856 6.89335C0.797606 6.89335 0.674559 6.84647 0.584715 6.75272C0.494871 6.65507 0.449949 6.54569 0.449949 6.4246ZM11.2371 3.78202V2.31718C11.2371 2.18827 11.2761 2.08671 11.3542 2.01249C11.4324 1.93436 11.5339 1.8953 11.6589 1.8953H12.2859C12.4148 1.8953 12.5164 1.93436 12.5906 2.01249C12.6687 2.08671 12.7078 2.18827 12.7078 2.31718V5.02421L11.2371 3.78202Z" fill="#9CA3AF"/>
</svg>
