<?xml version="1.0" encoding="UTF-8"?>
<!--Generator: Apple Native CoreSVG 232.5-->
<!DOCTYPE svg
PUBLIC "-//W3C//DTD SVG 1.1//EN"
       "http://www.w3.org/Graphics/SVG/1.1/DTD/svg11.dtd">
<svg version="1.1" xmlns="http://www.w3.org/2000/svg" xmlns:xlink="http://www.w3.org/1999/xlink" width="236.572" height="236.572">
 <g>
  <rect height="236.572" opacity="0" width="236.572" x="0" y="0"/>
  <path d="M118.213 236.426C182.812 236.426 236.572 182.812 236.572 118.213C236.572 53.6133 182.666 0 118.066 0C53.6133 0 0 53.6133 0 118.213C0 182.812 53.7598 236.426 118.213 236.426Z" fill="white"/>
  <path d="M90.9668 172.705C85.1074 172.705 81.4453 169.189 81.4453 163.916C81.4453 161.133 82.7637 158.496 85.1074 155.859L122.461 116.309C128.906 109.424 137.109 102.1 137.109 93.457C137.109 84.2285 129.932 78.0762 119.385 78.0762C108.398 78.0762 103.125 85.4004 99.4629 91.4062C96.9727 95.2148 94.6289 98.1445 89.9414 98.1445C84.668 98.1445 81.1523 94.7754 81.1523 89.6484C81.1523 87.8906 81.2988 86.4258 82.0312 84.5215C86.2793 71.3379 101.367 60.9375 118.359 60.9375C141.064 60.9375 156.152 73.2422 156.152 91.5527C156.152 105.615 148.096 115.283 137.988 125.977L111.475 154.102L111.475 154.98L152.49 154.98C157.764 154.98 161.572 158.203 161.572 163.77C161.572 169.189 157.764 172.705 152.49 172.705Z" fill="clear"/>
 </g>
</svg>
