<svg width="13" height="13" viewBox="0 0 13 13" fill="#9CA3AF" xmlns="http://www.w3.org/2000/svg">
<path d="M0.986328 1.60742C0.841797 1.60742 0.722656 1.55859 0.628906 1.46094C0.539062 1.36328 0.494141 1.24609 0.494141 1.10938C0.494141 0.976562 0.539062 0.863281 0.628906 0.769531C0.722656 0.671875 0.841797 0.623047 0.986328 0.623047H5.52734C5.66406 0.623047 5.78125 0.671875 5.87891 0.769531C5.97656 0.863281 6.02539 0.976562 6.02539 1.10938C6.02539 1.24609 5.97656 1.36328 5.87891 1.46094C5.78125 1.55859 5.66406 1.60742 5.52734 1.60742H0.986328ZM3.26562 12.8984C2.59375 12.8984 2.05273 12.6953 1.64258 12.2891C1.23242 11.8828 1.02734 11.3457 1.02734 10.6777V1.11523H1.9707V10.6777C1.9707 11.0645 2.08789 11.375 2.32227 11.6094C2.56055 11.8477 2.875 11.9668 3.26562 11.9668C3.64844 11.9668 3.95703 11.8477 4.19141 11.6094C4.42969 11.375 4.54883 11.0645 4.54883 10.6777V1.11523H5.48633V10.6777C5.48633 11.3457 5.2832 11.8828 4.87695 12.2891C4.4707 12.6953 3.93359 12.8984 3.26562 12.8984ZM4.81836 3.1543V10.6777C4.81836 11.1387 4.67383 11.5137 4.38477 11.8027C4.0957 12.0918 3.72266 12.2363 3.26562 12.2363C2.80078 12.2363 2.42383 12.0918 2.13477 11.8027C1.8457 11.5137 1.70117 11.1387 1.70117 10.6777V3.1543H4.81836ZM1.9707 5.05859H3.24805C3.3457 5.05859 3.42773 5.02539 3.49414 4.95898C3.56055 4.89258 3.59375 4.80859 3.59375 4.70703C3.59375 4.61719 3.55859 4.53906 3.48828 4.47266C3.41797 4.40625 3.33594 4.37305 3.24219 4.37305H1.9707V5.05859ZM1.9707 6.95703H3.24805C3.3457 6.95703 3.42773 6.92578 3.49414 6.86328C3.56055 6.79688 3.59375 6.71289 3.59375 6.61133C3.59375 6.52148 3.55859 6.44336 3.48828 6.37695C3.42188 6.30664 3.3418 6.27148 3.24805 6.27148H1.9707V6.95703ZM1.9707 8.86133H3.24219C3.34766 8.86133 3.43164 8.82812 3.49414 8.76172C3.56055 8.69531 3.5918 8.61328 3.58789 8.51562C3.58789 8.42578 3.55273 8.34766 3.48242 8.28125C3.41602 8.21094 3.33594 8.17578 3.24219 8.17578H1.9707V8.86133ZM7.46094 1.60742C7.3125 1.60742 7.19141 1.55859 7.09766 1.46094C7.00781 1.36328 6.96289 1.24609 6.96289 1.10938C6.96289 0.976562 7.00781 0.863281 7.09766 0.769531C7.19141 0.671875 7.3125 0.623047 7.46094 0.623047H12.002C12.1348 0.623047 12.25 0.671875 12.3477 0.769531C12.4453 0.863281 12.4941 0.976562 12.4941 1.10938C12.4941 1.24609 12.4453 1.36328 12.3477 1.46094C12.25 1.55859 12.1348 1.60742 12.002 1.60742H7.46094ZM9.73438 12.8984C9.0625 12.8984 8.52148 12.6953 8.11133 12.2891C7.70117 11.8828 7.49609 11.3457 7.49609 10.6777V1.11523H8.43945V10.6777C8.43945 11.0645 8.55859 11.375 8.79688 11.6094C9.03516 11.8477 9.34766 11.9668 9.73438 11.9668C10.1211 11.9668 10.4316 11.8477 10.666 11.6094C10.9043 11.375 11.0234 11.0645 11.0234 10.6777V1.11523H11.9609V10.6777C11.9609 11.3457 11.7559 11.8828 11.3457 12.2891C10.9395 12.6953 10.4023 12.8984 9.73438 12.8984ZM11.2871 10.0508V10.6777C11.2871 11.1387 11.1426 11.5137 10.8535 11.8027C10.5684 12.0918 10.1953 12.2363 9.73438 12.2363C9.27344 12.2363 8.89844 12.0918 8.60938 11.8027C8.32031 11.5137 8.17578 11.1387 8.17578 10.6777V10.0508H11.2871ZM8.19336 5.05859V4.37305H9.7168C9.81055 4.37305 9.89062 4.40625 9.95703 4.47266C10.0273 4.53906 10.0625 4.61719 10.0625 4.70703C10.0625 4.80859 10.0293 4.89258 9.96289 4.95898C9.90039 5.02539 9.82031 5.05859 9.72266 5.05859H8.19336ZM8.19336 6.95703V6.27148H9.72266C9.81641 6.27148 9.89648 6.30664 9.96289 6.37695C10.0293 6.44336 10.0625 6.52148 10.0625 6.61133C10.0625 6.71289 10.0293 6.79688 9.96289 6.86328C9.90039 6.92578 9.82031 6.95703 9.72266 6.95703H8.19336ZM8.19336 8.86133V8.17578H9.7168C9.81055 8.17578 9.89062 8.21094 9.95703 8.28125C10.0234 8.34766 10.0566 8.42578 10.0566 8.51562C10.0605 8.61328 10.0293 8.69531 9.96289 8.76172C9.90039 8.82812 9.81836 8.86133 9.7168 8.86133H8.19336Z" fill="#9CA3AF"/>
</svg>
