<svg width="16" height="13" viewBox="0 0 16 13" fill="currentColor"
  xmlns="http://www.w3.org/2000/svg">
<path
    d="M15.6875 6.42676C15.6875 6.67578 15.5796 6.9248 15.3887 7.09912L9.93506 12.561C9.71924 12.7686 9.49512 12.8516 9.271 12.8516C8.74805 12.8516 8.37451 12.4863 8.37451 11.9883C8.37451 11.731 8.47412 11.5068 8.64014 11.3408L10.4995 9.45654L12.9482 7.21533L11.0142 7.33154L0.92041 7.33154C0.380859 7.33154 -0.000977077 6.96631 -0.000977124 6.42676C-0.000977171 5.89551 0.380859 5.52197 0.92041 5.52197L11.0142 5.52197L12.9565 5.63818L10.4995 3.39697L8.64014 1.5127C8.47412 1.35498 8.37451 1.13086 8.37451 0.873536C8.37451 0.375489 8.74805 0.00195373 9.27099 0.00195369C9.49512 0.00195367 9.71924 0.0932622 9.91846 0.28418L15.3887 5.75439C15.5796 5.93701 15.6875 6.17773 15.6875 6.42676Z"
    fill="currentColor" />
</svg>
