<svg width="21" height="21" viewBox="0 0 21 21" fill="none" xmlns="http://www.w3.org/2000/svg">
<path d="M10.0882 20.1842C11.4284 20.1931 12.7561 19.9255 13.9882 19.3982C15.1908 18.8828 16.2835 18.1418 17.2072 17.2152C18.1347 16.2896 18.8773 15.1958 19.3952 13.9922C19.9256 12.7608 20.1949 11.4329 20.1862 10.0922C20.1949 8.75152 19.9256 7.42358 19.3952 6.19221C18.8783 4.98979 18.1359 3.89746 17.2082 2.97421C16.2816 2.0493 15.1879 1.30854 13.9852 0.791213C12.7518 0.260623 11.4219 -0.00870093 10.0792 0.000214314C8.74109 -0.00847513 7.41577 0.26088 6.1872 0.791213C4.98756 1.30873 3.89721 2.04954 2.9742 2.97421C2.0487 3.89845 1.30782 4.9906 0.791204 6.19221C0.260844 7.42358 -0.00848973 8.75152 0.000203948 10.0922C-0.00848973 11.4329 0.260844 12.7608 0.791204 13.9922C1.30853 15.1949 2.04929 16.2886 2.9742 17.2152C3.89642 18.1427 4.98865 18.8839 6.1912 19.3982C7.42243 19.9251 8.74901 20.1927 10.0882 20.1842ZM4.8522 10.0862C4.85639 9.94865 4.88893 9.81344 4.94777 9.68903C5.00662 9.56463 5.09052 9.45371 5.1942 9.36321L8.6322 5.97421C8.71331 5.89329 8.81023 5.82996 8.9169 5.78815C9.02357 5.74634 9.13771 5.72696 9.2522 5.73121C9.36292 5.72694 9.47333 5.74551 9.57656 5.78577C9.67978 5.82603 9.77362 5.88711 9.8522 5.96521C9.93031 6.0438 9.99139 6.13763 10.0316 6.24086C10.0719 6.34409 10.0905 6.4545 10.0862 6.56521C10.0862 6.68111 10.0619 6.79573 10.0149 6.90166C9.96788 7.00759 9.89917 7.10248 9.8132 7.18021L8.5942 8.34721L7.4422 9.26521L9.5322 9.16521H14.4732C14.5912 9.1621 14.7086 9.18351 14.8179 9.22809C14.9272 9.27267 15.026 9.33945 15.1082 9.42421C15.1928 9.51126 15.2589 9.61451 15.3025 9.72776C15.3462 9.84101 15.3665 9.96192 15.3622 10.0832C15.3657 10.2029 15.345 10.3221 15.3014 10.4336C15.2577 10.5451 15.192 10.6467 15.1082 10.7322C15.026 10.817 14.9272 10.8838 14.8179 10.9283C14.7086 10.9729 14.5912 10.9943 14.4732 10.9912H9.5312L7.4312 10.8912L8.5832 11.8192L9.8052 12.9872C9.89395 13.0648 9.96445 13.1611 10.0116 13.2692C10.0588 13.3772 10.0816 13.4944 10.0782 13.6122C10.0815 13.7228 10.0625 13.8329 10.0222 13.936C9.98205 14.0391 9.92149 14.133 9.8442 14.2122C9.76688 14.2898 9.67443 14.3507 9.5726 14.3912C9.47077 14.4316 9.36171 14.4507 9.2522 14.4472C9.13778 14.4491 9.02418 14.4276 8.91841 14.3839C8.81264 14.3402 8.71694 14.2753 8.6372 14.1932L5.1952 10.8092C5.09133 10.7188 5.00725 10.6079 4.94823 10.4835C4.88921 10.3591 4.85652 10.2238 4.8522 10.0862Z" fill="#262626"/>
</svg>
