<svg width="16" height="13" viewBox="0 0 16 13" fill="none" xmlns="http://www.w3.org/2000/svg">
<path d="M0 6.4248C0 6.17578 0.10791 5.92676 0.298828 5.75244L5.75244 0.290527C5.96826 0.0830078 6.19238 0 6.4165 0C6.93945 0 7.31299 0.365234 7.31299 0.863281C7.31299 1.12061 7.21338 1.34473 7.04736 1.51074L5.18799 3.39502L2.73926 5.63623L4.67334 5.52002H14.7671C15.3066 5.52002 15.6885 5.88525 15.6885 6.4248C15.6885 6.95605 15.3066 7.32959 14.7671 7.32959H4.67334L2.73096 7.21338L5.18799 9.45459L7.04736 11.3389C7.21338 11.4966 7.31299 11.7207 7.31299 11.978C7.31299 12.4761 6.93945 12.8496 6.4165 12.8496C6.19238 12.8496 5.96826 12.7583 5.76904 12.5674L0.298828 7.09717C0.10791 6.91455 0 6.67383 0 6.4248Z" fill="#202221"/>
</svg>
