<svg width="18" height="18" viewBox="0 0 18 18" fill="none" xmlns="http://www.w3.org/2000/svg">
<path d="M1.6663 8.00879H6.3473C6.57125 8.02516 6.79622 7.99701 7.00922 7.92595C7.22222 7.85489 7.41904 7.74234 7.5883 7.59479C7.74069 7.42075 7.8565 7.21783 7.92883 6.99809C8.00116 6.77836 8.02852 6.54632 8.0093 6.31579V1.69179C8.02881 1.46171 8.00156 1.23005 7.92921 1.01076C7.85686 0.791479 7.7409 0.589096 7.5883 0.415793C7.24524 0.120196 6.79894 -0.0272531 6.3473 0.00579294H1.6663C1.44279 -0.0109863 1.21817 0.0165997 1.00536 0.086964C0.792547 0.157328 0.595754 0.269082 0.4263 0.415793C0.274073 0.589301 0.158416 0.791737 0.0862494 1.01099C0.0140828 1.23023 -0.0131095 1.46179 0.00629978 1.69179V6.31579C-0.0128312 6.54624 0.0144845 6.77818 0.0866285 6.99787C0.158772 7.21757 0.274277 7.42055 0.4263 7.59479C0.595441 7.74221 0.792092 7.8547 1.00491 7.92575C1.21774 7.99681 1.44252 8.02503 1.6663 8.00879ZM1.6893 6.93279C1.60581 6.93962 1.5218 6.9294 1.44238 6.90275C1.36296 6.87611 1.28978 6.83359 1.2273 6.77779C1.1186 6.64488 1.06588 6.47489 1.0803 6.30379V1.69879C1.06538 1.52856 1.1182 1.35932 1.2273 1.22779C1.29054 1.1735 1.36397 1.13235 1.4433 1.10677C1.52262 1.08118 1.60625 1.07167 1.6893 1.07879H6.3173C6.40048 1.07193 6.4842 1.08156 6.56366 1.10713C6.64311 1.1327 6.71673 1.1737 6.7803 1.22779C6.83528 1.29244 6.87686 1.36737 6.90261 1.44823C6.92836 1.52909 6.93777 1.61426 6.9303 1.69879V6.30379C6.94487 6.4754 6.89094 6.64581 6.7803 6.77779C6.71721 6.8328 6.64372 6.87459 6.5642 6.9007C6.48467 6.9268 6.40072 6.9367 6.3173 6.92979L1.6893 6.93279ZM3.2073 4.98479H4.7973C4.9213 4.98479 4.9833 4.91313 4.9833 4.76979V3.22879C4.9833 3.09146 4.9213 3.02279 4.7973 3.02279H3.2073C3.0853 3.02279 3.0243 3.09146 3.0243 3.22879V4.76979C3.0243 4.91313 3.0853 4.98479 3.2073 4.98479ZM11.3483 8.00779H16.0223C16.2462 8.02416 16.4712 7.99601 16.6842 7.92495C16.8972 7.85389 17.094 7.74134 17.2633 7.59379C17.4157 7.41975 17.5315 7.21683 17.6038 6.99709C17.6762 6.77736 17.7035 6.54532 17.6843 6.31479V1.69079C17.7038 1.46071 17.6766 1.22905 17.6042 1.00976C17.5319 0.790479 17.4159 0.588096 17.2633 0.414792C16.9202 0.119196 16.4739 -0.0282535 16.0223 0.00479253H11.3483C10.895 -0.0291612 10.4468 0.118318 10.1023 0.414792C9.95007 0.588301 9.83442 0.790737 9.76225 1.00999C9.69008 1.22924 9.66289 1.46079 9.6823 1.69079V6.31479C9.66317 6.54524 9.69048 6.77718 9.76263 6.99687C9.83477 7.21657 9.95028 7.41955 10.1023 7.59379C10.2723 7.74185 10.4699 7.85476 10.6838 7.92599C10.8976 7.99723 11.1235 8.02537 11.3483 8.00879V8.00779ZM11.3713 6.93179C11.2871 6.93956 11.2021 6.93009 11.1217 6.90395C11.0412 6.87782 10.9669 6.83558 10.9033 6.77979C10.7958 6.64633 10.7438 6.47656 10.7583 6.30579V1.70079C10.7433 1.53088 10.7953 1.36183 10.9033 1.22979C10.9674 1.17498 11.0419 1.13356 11.1222 1.10797C11.2026 1.08238 11.2873 1.07314 11.3713 1.08079H16.0033C16.0865 1.07314 16.1705 1.08239 16.25 1.108C16.3296 1.1336 16.4032 1.17503 16.4663 1.22979C16.5734 1.36228 16.625 1.53108 16.6103 1.70079V6.30579C16.6244 6.47637 16.5729 6.6459 16.4663 6.77979C16.4036 6.83549 16.3302 6.87772 16.2506 6.90386C16.1709 6.93001 16.0868 6.93952 16.0033 6.93179H11.3713ZM12.9173 4.98479H14.5043C14.6376 4.98479 14.7043 4.91313 14.7043 4.76979V3.22879C14.7043 3.09146 14.6376 3.02279 14.5043 3.02279H12.9173C12.8 3.02279 12.7413 3.09146 12.7413 3.22879V4.76979C12.7446 4.91313 12.8033 4.98479 12.9173 4.98479ZM1.6663 17.6828H6.3473C6.79894 17.7158 7.24524 17.5684 7.5883 17.2728C7.74077 17.0996 7.85666 16.8974 7.92901 16.6783C8.00136 16.4592 8.02867 16.2277 8.0093 15.9978V11.3678C8.02814 11.1384 8.00057 10.9075 7.92824 10.689C7.85591 10.4704 7.7403 10.2687 7.5883 10.0958C7.41935 9.94754 7.22268 9.83426 7.00966 9.76251C6.79665 9.69076 6.57152 9.66196 6.3473 9.67779H1.6663C1.44252 9.66156 1.21774 9.68978 1.00491 9.76083C0.792092 9.83189 0.595441 9.94437 0.4263 10.0918C0.274626 10.2649 0.159288 10.4666 0.087137 10.6851C0.0149864 10.9037 -0.0125038 11.1344 0.00629978 11.3638V15.9978C-0.0135248 16.2285 0.0135548 16.4609 0.0859075 16.6808C0.15826 16.9008 0.274389 17.1039 0.4273 17.2778C0.597021 17.4235 0.793828 17.5343 1.00644 17.6038C1.21905 17.6733 1.44329 17.7001 1.6663 17.6828ZM1.6893 16.6078C1.60625 16.6149 1.52262 16.6054 1.4433 16.5798C1.36397 16.5542 1.29054 16.5131 1.2273 16.4588C1.1182 16.3273 1.06538 16.158 1.0803 15.9878V11.3828C1.0647 11.2103 1.11749 11.0387 1.2273 10.9048C1.29054 10.8505 1.36397 10.8094 1.4433 10.7838C1.52262 10.7582 1.60625 10.7487 1.6893 10.7558H6.3173C6.40048 10.7489 6.4842 10.7586 6.56366 10.7841C6.64311 10.8097 6.71673 10.8507 6.7803 10.9048C6.83568 10.9706 6.87745 11.0467 6.9032 11.1288C6.92895 11.2108 6.93816 11.2972 6.9303 11.3828V15.9878C6.93777 16.0723 6.92836 16.1575 6.90261 16.2384C6.87686 16.3192 6.83528 16.3941 6.7803 16.4588C6.71673 16.5129 6.64311 16.5539 6.56366 16.5795C6.4842 16.605 6.40048 16.6147 6.3173 16.6078H1.6893ZM3.2073 14.6668H4.7973C4.9213 14.6668 4.9833 14.5928 4.9833 14.4448V12.9098C4.9833 12.7725 4.9213 12.7038 4.7973 12.7038H3.2073C3.0853 12.7038 3.0243 12.7725 3.0243 12.9098V14.4438C3.0243 14.5925 3.0853 14.6668 3.2073 14.6668ZM10.2943 12.0668H11.8813C12.0073 12.0668 12.0703 11.9951 12.0703 11.8518V10.3158C12.0703 10.1785 12.0073 10.1098 11.8813 10.1098H10.2943C10.1723 10.1098 10.1113 10.1785 10.1113 10.3158V11.8538C10.1113 11.9971 10.1723 12.0688 10.2943 12.0688V12.0668ZM15.4803 12.0668H17.0673C17.1933 12.0668 17.2563 11.9951 17.2563 11.8518V10.3158C17.2563 10.1785 17.1933 10.1098 17.0673 10.1098H15.4793C15.3573 10.1098 15.2963 10.1785 15.2963 10.3158V11.8538C15.297 11.9971 15.358 12.0688 15.4793 12.0688L15.4803 12.0668ZM12.9123 14.6668H14.5023C14.6263 14.6668 14.6883 14.5928 14.6883 14.4448V12.9098C14.6883 12.7725 14.6263 12.7038 14.5023 12.7038H12.9123C12.7903 12.7038 12.7293 12.7725 12.7293 12.9098V14.4438C12.7286 14.5925 12.7893 14.6668 12.9113 14.6668H12.9123ZM10.2943 17.2548H11.8813C12.0073 17.2548 12.0703 17.1831 12.0703 17.0398V15.5008C12.0703 15.3635 12.0073 15.2948 11.8813 15.2948H10.2943C10.1723 15.2948 10.1113 15.3635 10.1113 15.5008V17.0388C10.1113 17.1828 10.1723 17.2548 10.2943 17.2548ZM15.4803 17.2548H17.0673C17.1933 17.2548 17.2563 17.1831 17.2563 17.0398V15.5008C17.2563 15.3635 17.1933 15.2948 17.0673 15.2948H15.4793C15.3573 15.2948 15.2963 15.3635 15.2963 15.5008V17.0388C15.297 17.1828 15.359 17.2548 15.4803 17.2548Z" fill="#262626"/>
</svg>
