<svg width="16" height="12" viewBox="0 0 16 12" fill="none" xmlns="http://www.w3.org/2000/svg">
<g clip-path="url(#clip0_486_1293)">
<path d="M0.00292969 1.884L7.99993 5.882L15.9969 1.884C15.9673 1.37444 15.744 0.895488 15.3727 0.545227C15.0015 0.194965 14.5103 -9.35847e-05 13.9999 3.36835e-08H1.99993C1.48951 -9.35847e-05 0.998377 0.194965 0.627108 0.545227C0.255838 0.895488 0.0325338 1.37444 0.00292969 1.884Z" fill="#202221" fill-opacity="0.3"/>
<path d="M16 4.11816L8 8.11816L0 4.11816V10.0002C0 10.5306 0.210714 11.0393 0.585786 11.4144C0.960859 11.7895 1.46957 12.0002 2 12.0002H14C14.5304 12.0002 15.0391 11.7895 15.4142 11.4144C15.7893 11.0393 16 10.5306 16 10.0002V4.11816Z" fill="#202221" fill-opacity="0.3"/>
</g>
<defs>
<clipPath id="clip0_486_1293">
<rect width="16" height="12" fill="white"/>
</clipPath>
</defs>
</svg>
