<svg width="16" height="16" viewBox="0 0 16 16" fill="none" xmlns="http://www.w3.org/2000/svg">
<path fill-rule="evenodd" clip-rule="evenodd" d="M8.00621 0.5C3.85547 0.5 0.5 3.93749 0.5 8.19012C0.5 11.5895 2.64996 14.467 5.63253 15.4854C6.00543 15.562 6.14202 15.3199 6.14202 15.1163C6.14202 14.9381 6.12973 14.327 6.12973 13.6903C4.04169 14.1487 3.60687 12.7735 3.60687 12.7735C3.27131 11.8823 2.77411 11.6532 2.77411 11.6532C2.09069 11.1821 2.82389 11.1821 2.82389 11.1821C3.58198 11.2331 3.97977 11.9715 3.97977 11.9715C4.65074 13.1428 5.73194 12.8118 6.16691 12.6081C6.22899 12.1115 6.42796 11.7678 6.63922 11.5768C4.97386 11.3985 3.22168 10.7365 3.22168 7.78263C3.22168 6.94232 3.51975 6.25482 3.99206 5.72013C3.91754 5.5292 3.6565 4.73967 4.06673 3.68296C4.06673 3.68296 4.70052 3.47921 6.12958 4.47233C6.74141 4.30399 7.37238 4.21836 8.00621 4.21764C8.63999 4.21764 9.28607 4.30686 9.88268 4.47233C11.3119 3.47921 11.9457 3.68296 11.9457 3.68296C12.3559 4.73967 12.0947 5.5292 12.0202 5.72013C12.505 6.25482 12.7907 6.94232 12.7907 7.78263C12.7907 10.7365 11.0386 11.3857 9.36075 11.5768C9.63424 11.8187 9.87024 12.277 9.87024 13.0028C9.87024 14.034 9.85794 14.8617 9.85794 15.1162C9.85794 15.3199 9.99469 15.562 10.3674 15.4856C13.35 14.4668 15.5 11.5895 15.5 8.19012C15.5123 3.93749 12.1445 0.5 8.00621 0.5Z" fill="#202221" fill-opacity="0.3"/>
</svg>
