<svg width="36" height="15" viewBox="0 0 36 15" fill="none" xmlns="http://www.w3.org/2000/svg">
<path d="M9.29004 14.0581C5.7832 14.0581 2.8916 11.5049 2.34814 8.15186H0.84082C0.297363 8.15186 0 7.85449 0 7.29053V6.12158C0 5.55762 0.287109 5.27051 0.84082 5.27051H2.48145C3.25049 2.23535 6.00879 0 9.29004 0C12.4893 0 15.186 2.13281 16.0371 5.05518C16.6011 4.8501 17.2573 4.75781 17.7905 4.75781C18.3237 4.75781 18.98 4.8501 19.5542 5.05518C20.4053 2.13281 23.1021 0 26.3013 0C29.5825 0 32.3306 2.23535 33.1099 5.27051H34.7402C35.3042 5.27051 35.5913 5.55762 35.5913 6.12158V7.29053C35.5913 7.85449 35.2939 8.15186 34.7402 8.15186H33.2432C32.6997 11.5049 29.7979 14.0581 26.3013 14.0581C22.5894 14.0581 19.5439 11.187 19.2876 7.52637C18.8057 7.35205 18.2725 7.28027 17.7905 7.28027C17.3188 7.28027 16.7754 7.35205 16.2935 7.52637C16.0371 11.187 13.002 14.0581 9.29004 14.0581ZM9.29004 11.3101C11.6484 11.3101 13.5659 9.39258 13.5659 7.02393C13.5659 4.66553 11.6484 2.74805 9.29004 2.74805C6.92139 2.74805 5.00391 4.66553 5.00391 7.02393C5.00391 9.39258 6.92139 11.3101 9.29004 11.3101ZM26.3013 11.3101C28.6699 11.3101 30.5771 9.39258 30.5771 7.02393C30.5771 4.66553 28.6699 2.74805 26.3013 2.74805C23.9429 2.74805 22.0254 4.66553 22.0254 7.02393C22.0254 9.39258 23.9429 11.3101 26.3013 11.3101Z" fill="#ACACAC" fillOpacity="0.39"/>
</svg>
