<?xml version="1.0" encoding="UTF-8"?>
<!--Generator: Apple Native CoreSVG 232.5-->
<!DOCTYPE svg
PUBLIC "-//W3C//DTD SVG 1.1//EN"
       "http://www.w3.org/Graphics/SVG/1.1/DTD/svg11.dtd">
<svg version="1.1" xmlns="http://www.w3.org/2000/svg" xmlns:xlink="http://www.w3.org/1999/xlink" width="224.854" height="235.4">
 <g>
  <rect height="235.4" opacity="0" width="224.854" x="0" y="0"/>
  <path d="M49.2188 130.811L102.979 130.811C105.322 130.811 107.227 129.199 107.227 126.416C107.227 123.779 105.322 122.168 102.979 122.168L49.2188 122.168C46.582 122.168 44.6777 123.779 44.6777 126.416C44.6777 129.199 46.582 130.811 49.2188 130.811ZM49.2188 111.475L124.658 111.475C127.148 111.475 128.906 109.863 128.906 107.08C128.906 104.443 127.148 102.832 124.658 102.832L49.2188 102.832C46.582 102.832 44.6777 104.443 44.6777 107.08C44.6777 109.863 46.582 111.475 49.2188 111.475ZM50.5371 65.0391C53.6133 65.0391 56.25 62.4023 56.25 59.3262C56.25 56.1035 53.6133 53.3203 50.5371 53.3203C47.3145 53.3203 44.6777 56.1035 44.6777 59.3262C44.6777 62.4023 47.3145 65.0391 50.5371 65.0391ZM50.5371 85.6934C53.6133 85.6934 56.25 83.0566 56.25 79.834C56.25 76.7578 53.6133 73.9746 50.5371 73.9746C47.3145 73.9746 44.6777 76.7578 44.6777 79.834C44.6777 83.0566 47.3145 85.6934 50.5371 85.6934ZM63.8672 68.9941C63.8672 76.3184 67.9688 83.3496 71.3379 86.2793C72.2168 87.0117 73.3887 87.4512 74.5605 87.4512C76.4648 87.4512 78.0762 85.9863 78.0762 83.9355C78.0762 82.3242 77.1973 81.4453 76.1719 80.4199C72.9492 77.0508 71.4844 72.9492 71.4844 68.9941C71.4844 64.8926 73.0957 61.084 76.1719 57.7148C77.1973 56.3965 78.0762 55.6641 78.0762 54.0527C78.0762 52.002 76.4648 50.3906 74.5605 50.3906C73.5352 50.3906 72.2168 50.9766 71.3379 51.709C66.6504 55.6641 63.8672 61.8164 63.8672 68.9941Z" fill="#202221" />

  <path d="M0 168.311C0 189.404 10.2539 199.365 30.9082 199.365L193.945 199.365C214.6 199.365 224.854 189.404 224.854 168.311L224.854 31.2012C224.854 9.81445 214.453 0 193.652 0L31.0547 0C10.4004 0 0 9.81445 0 31.2012ZM21.0938 150.146L21.0938 31.4941C21.0938 23.877 24.1699 21.0938 31.3477 21.0938L193.359 21.0938C200.684 21.0938 203.76 23.877 203.76 31.4941L203.76 150.146C203.76 157.617 200.684 160.4 193.359 160.4L31.3477 160.4C24.1699 160.4 21.0938 157.617 21.0938 150.146ZM177.246 186.328C173.145 186.328 169.336 182.52 169.336 178.271C169.336 174.023 173.145 170.215 177.246 170.215C181.787 170.215 185.449 174.023 185.449 178.271C185.449 182.52 181.787 186.328 177.246 186.328ZM112.354 213.281C145.02 213.281 171.24 205.664 178.271 194.092L46.4355 194.092C53.6133 205.664 79.6875 213.281 112.354 213.281ZM56.25 231.445L168.604 231.445C180.322 231.445 181.201 218.555 173.438 215.186L145.312 202.734L79.541 202.734L51.416 215.186C43.6523 218.555 44.5312 231.445 56.25 231.445Z" fill="#000000" fill-opacity="0.85"/>
 </g>
</svg>

