<svg width="884" height="301" viewBox="0 0 884 301" fill="none" xmlns="http://www.w3.org/2000/svg">
<path d="M17 217.025C17 217.025 40.1579 184.425 82.7559 170.525C125.354 156.625 164.066 172.52 202.756 155.325C235.294 140.866 240.312 118.59 231.875 106.098C223.438 93.6062 189.76 80.1982 129.268 155.325C68.7756 230.452 91.5959 291.006 168.42 281.164C245.244 271.322 342.507 158.435 342.507 158.435" stroke="white" stroke-width="33" stroke-linecap="round" stroke-linejoin="round"/>
<path d="M837.094 298.505H836.8C832.031 298.505 827.343 298.102 822.867 297.306C818.385 296.509 813.991 295.297 809.806 293.703C805.618 292.107 801.721 290.184 798.223 287.985C795.064 286 792.153 283.741 789.552 281.259C780.424 286.87 771.358 291.162 762.589 294.021C753.465 296.997 744.406 298.505 735.664 298.505C729.161 298.505 723.076 297.564 717.581 295.707C712.065 293.843 706.995 291.008 702.512 287.281C698.052 283.572 694.128 279.078 690.85 273.923C688.106 269.608 685.751 264.73 683.83 259.388C680.101 265.374 675.978 270.705 671.546 275.266C666.421 280.54 660.74 284.932 654.663 288.32C648.608 291.694 642.439 294.262 636.325 295.952C630.196 297.646 623.953 298.505 617.77 298.505C612.961 298.505 608.469 297.97 604.419 296.913C600.338 295.849 596.594 294.226 593.289 292.091C589.98 289.953 587.025 287.244 584.508 284.041C582.504 281.489 580.734 278.569 579.229 275.334C576.801 278.567 574.083 281.495 571.126 284.063C567.516 287.196 563.45 289.878 559.041 292.032C554.636 294.184 549.769 295.82 544.574 296.894C539.402 297.963 533.761 298.505 527.806 298.505C521.489 298.505 515.579 297.822 510.24 296.475C504.872 295.121 499.932 293.057 495.557 290.342C491.176 287.622 487.245 284.177 483.874 280.101C481.08 276.723 478.607 272.836 476.503 268.516C473.676 273.221 470.53 277.317 467.127 280.72C461.731 286.116 455.399 290.473 448.308 293.669C444.746 295.274 440.995 296.495 437.157 297.298C433.326 298.099 429.303 298.505 425.2 298.505C417.977 298.505 411.487 297.316 405.913 294.97C400.299 292.608 395.469 289.015 391.558 284.291C387.672 279.597 384.72 273.865 382.785 267.255C380.867 260.705 379.894 253.107 379.894 244.673V213.509C379.894 208.673 379.357 204.322 378.297 200.578C377.254 196.891 375.674 193.69 373.602 191.066C371.559 188.477 369.065 186.511 366.191 185.221C363.288 183.918 359.897 183.257 356.11 183.257C352.386 183.257 348.802 183.882 345.457 185.113C342.105 186.346 338.889 188.227 335.899 190.704C332.88 193.203 330.127 196.209 327.717 199.636C325.293 203.081 323.146 207.051 321.335 211.436C319.521 215.828 318.116 220.625 317.159 225.694C316.201 230.777 315.665 236.276 315.568 242.039V292.889V294.005L314.499 294.326C312.488 294.929 310.25 295.438 307.847 295.839C305.425 296.243 303.067 296.447 300.838 296.447C296.392 296.447 291.887 295.731 287.448 294.319L286.402 293.986V292.889V235.215C282.278 238.532 278.665 240.973 275.637 242.487L274.812 242.9L274.071 242.349C270.093 239.391 266.935 235.817 264.685 231.725C262.441 227.644 261.045 222.95 260.538 217.772L260.445 216.83L261.255 216.341C270.34 210.852 278.798 204.252 286.402 196.716V63.8633C286.402 53.9758 287.459 45.089 289.542 37.4496C291.643 29.7468 294.847 23.0908 299.066 17.6664C301.151 14.9861 303.496 12.6061 306.036 10.5925C308.579 8.57593 311.387 6.87207 314.381 5.52829C317.367 4.18854 320.619 3.17029 324.047 2.50192C327.457 1.83707 331.137 1.5 334.983 1.5C335.268 1.5 335.557 1.50177 335.843 1.50546C343.095 1.60614 349.656 3.09323 355.346 5.92545C361.048 8.76385 366.014 13.0214 370.107 18.5798C374.165 24.09 377.249 30.5081 379.273 37.6561C381.286 44.7633 382.306 52.7894 382.306 61.5113C382.306 69.1875 381.758 77.0828 380.676 84.9778C379.594 92.8669 377.95 100.978 375.788 109.085C373.626 117.193 370.861 125.401 367.569 133.482C364.612 140.744 361.154 148.086 357.277 155.343C358.238 155.293 359.223 155.267 360.226 155.267C367.753 155.267 374.622 156.621 380.643 159.292C386.682 161.97 392.019 166.039 396.508 171.385C400.977 176.707 404.373 183.013 406.603 190.129C408.819 197.2 409.942 205.264 409.942 214.097V239.381C409.942 250.437 411.313 258.501 414.016 263.347C416.595 267.973 420.831 270.221 426.964 270.221C427.011 270.221 427.057 270.222 427.102 270.222C427.154 270.222 427.206 270.221 427.258 270.221C431.103 270.221 435.314 268.996 439.774 266.58C444.267 264.147 448.554 260.331 452.519 255.238C455.277 251.431 457.652 247.232 459.581 242.757C461.517 238.263 463.057 233.362 464.158 228.191C466.38 217.759 467.506 207.478 467.506 197.633V154.121V153.04L468.532 152.698C470.362 152.088 472.516 151.575 474.934 151.172C477.356 150.768 479.912 150.563 482.53 150.563C487.172 150.563 491.776 151.279 496.215 152.692L497.26 153.024V154.121V222.035C497.26 230.413 497.941 237.735 499.283 243.798C500.605 249.771 502.601 254.67 505.216 258.359C506.505 260.177 507.997 261.788 509.65 263.149C511.302 264.509 513.167 265.659 515.191 266.568C519.288 268.407 524.225 269.339 529.864 269.339C533.249 269.339 536.461 269.027 539.411 268.411C542.342 267.799 545.097 266.87 547.601 265.65C550.096 264.435 552.416 262.894 554.495 261.071C556.58 259.242 558.485 257.076 560.158 254.631C563.538 249.69 566.115 243.403 567.816 235.942C569.535 228.407 570.406 219.474 570.406 209.393V154.121V153.082L571.38 152.717C573.031 152.098 575.104 151.578 577.54 151.172C579.962 150.768 582.518 150.563 585.136 150.563C589.973 150.563 594.676 151.279 599.115 152.692L600.16 153.024V154.121V238.793C600.16 243.864 600.559 248.427 601.344 252.354C602.118 256.224 603.288 259.575 604.821 262.316C606.287 264.938 608.272 266.927 610.72 268.229C613.208 269.551 616.272 270.221 619.828 270.221C624.487 270.221 629.963 268.784 636.105 265.949C639.164 264.537 642.237 262.599 645.239 260.188C648.265 257.758 651.302 254.781 654.266 251.339C657.215 247.914 659.945 243.818 662.379 239.164C664.827 234.483 667.045 229.108 668.97 223.188C670.892 217.278 672.355 210.507 673.319 203.063C674.286 195.592 674.776 187.237 674.776 178.229V151.505H654.52H653.539L653.146 150.607C651.697 147.294 650.962 143.136 650.962 138.245C650.962 133.355 651.697 129.196 653.146 125.884L653.539 124.985H654.52H674.776V74.4473V73.4014L675.758 73.0398C679.631 71.6128 684.356 70.8893 689.8 70.8893C694.637 70.8893 699.34 71.6055 703.779 73.0179L704.824 73.3505V74.4473V124.985H747.13H748.057L748.472 125.814C750.138 129.146 750.983 133.328 750.983 138.245C750.983 143.162 750.138 147.345 748.472 150.676L748.057 151.505H747.13H704.824V210.863C704.824 220.52 705.569 229.163 707.037 236.553C708.493 243.881 710.7 250.171 713.595 255.249C716.444 260.248 719.919 264.037 723.922 266.513C725.907 267.741 728.07 268.676 730.349 269.29C732.642 269.908 735.123 270.221 737.722 270.221C743.226 270.221 748.91 269.305 754.616 267.498C760.043 265.78 766.428 262.858 773.611 258.807C770.098 252.404 767.403 245.402 765.592 237.973C763.661 230.053 762.682 221.427 762.682 212.333C762.682 206.182 763.262 200.304 764.405 194.863C765.552 189.403 767.298 184.23 769.594 179.487C771.894 174.738 774.684 170.427 777.888 166.672C781.099 162.91 784.812 159.603 788.925 156.845C793.05 154.077 797.516 151.972 802.198 150.588C806.871 149.206 811.886 148.505 817.102 148.505C821.523 148.505 825.756 149.029 829.685 150.061C833.627 151.098 837.37 152.674 840.809 154.748C844.243 156.818 847.343 159.316 850.022 162.172C852.699 165.026 855.027 168.313 856.943 171.943C858.857 175.57 860.312 179.526 861.268 183.701C862.22 187.859 862.702 192.348 862.702 197.045C862.702 203.444 861.751 209.656 859.875 215.511C857.999 221.363 855.148 227.015 851.402 232.31C847.681 237.568 842.626 243.115 836.376 248.797C830.591 254.056 823.626 259.573 815.649 265.217C818.223 266.781 821.157 268.009 824.399 268.876C828.467 269.964 833.134 270.515 838.27 270.515C843.793 270.515 849.396 269.742 854.924 268.217C860.48 266.684 865.921 264.547 871.096 261.864L871.923 261.435L872.674 261.986C875.849 264.314 878.253 267.77 879.818 272.256C881.336 276.61 882.106 280.881 882.106 284.951V285.819L881.355 286.251C874.816 290.016 867.784 293.03 860.454 295.209C853.097 297.396 845.238 298.505 837.094 298.505ZM816.22 175.907C812.669 175.907 809.386 176.712 806.462 178.298C803.514 179.898 800.825 182.348 798.47 185.581C796.084 188.856 794.268 192.56 793.073 196.59C791.87 200.646 791.26 205.151 791.26 209.981C791.26 217.578 791.941 224.491 793.283 230.53C794.476 235.901 796.223 240.711 798.481 244.854C804.216 240.815 809.307 236.776 813.63 232.834C818.262 228.609 822.14 224.381 825.153 220.267C828.147 216.18 830.42 212.143 831.909 208.267C833.379 204.441 834.124 200.665 834.124 197.045C834.124 193.684 833.714 190.656 832.905 188.044C832.113 185.485 830.912 183.252 829.339 181.408C827.784 179.588 825.907 178.204 823.758 177.296C821.579 176.374 819.043 175.907 816.22 175.907ZM334.648 28.9073C331.349 28.9073 328.437 29.6031 325.993 30.9753C323.556 32.3445 321.486 34.4432 319.842 37.2134C316.421 42.9773 314.686 51.8448 314.686 63.5693V173.015C320.478 164.261 325.697 155.477 330.234 146.845C335.47 136.882 339.943 126.842 343.529 117.005C347.111 107.178 349.835 97.4999 351.624 88.238C353.411 78.9919 354.316 69.9008 354.316 61.2173C354.316 55.8614 353.87 51.0842 352.991 47.0183C352.125 43.0188 350.819 39.6069 349.107 36.8772C347.439 34.2181 345.385 32.2034 343.001 30.8891C340.617 29.5741 337.806 28.9073 334.648 28.9073Z" fill="white"/>
<path d="M837.094 297.005C845.13 297.005 852.774 295.927 860.026 293.771C867.278 291.615 874.138 288.675 880.606 284.951C880.606 281.031 879.871 276.964 878.401 272.75C876.931 268.536 874.726 265.351 871.786 263.195C866.494 265.939 861.006 268.095 855.322 269.663C849.638 271.231 843.954 272.015 838.27 272.015C827.686 272.015 819.258 269.761 812.986 265.253C830.43 253.101 842.827 241.831 850.177 231.443C857.527 221.055 861.202 209.589 861.202 197.045C861.202 187.833 859.34 179.699 855.616 172.643C851.892 165.587 846.698 160.05 840.034 156.032C833.37 152.014 825.726 150.005 817.102 150.005C806.91 150.005 797.796 152.7 789.76 158.09C781.724 163.48 775.452 170.83 770.944 180.14C766.436 189.45 764.182 200.181 764.182 212.333C764.182 230.365 768.004 246.045 775.648 259.373C767.808 263.881 760.948 267.066 755.068 268.928C749.188 270.79 743.406 271.721 737.722 271.721C743.406 271.721 746.248 276.033 746.248 284.657C746.248 288.381 745.317 291.37 743.455 293.624C741.593 295.878 738.996 297.005 735.664 297.005C752.912 297.005 770.944 291.125 789.76 279.365C795.248 284.853 802.108 289.165 810.34 292.301C818.572 295.437 827.392 297.005 836.8 297.005H837.094ZM816.22 174.407C822.296 174.407 827.049 176.416 830.479 180.434C833.909 184.452 835.624 189.989 835.624 197.045C835.624 204.689 832.537 212.725 826.363 221.153C820.189 229.581 810.732 238.205 797.992 247.025C792.504 237.813 789.76 225.465 789.76 209.981C789.76 199.985 792.259 191.557 797.257 184.697C802.255 177.837 808.576 174.407 816.22 174.407ZM735.664 297.005C733.116 297.005 731.058 295.829 729.49 293.477C727.922 291.125 727.138 288.087 727.138 284.363C727.138 275.935 730.666 271.721 737.722 271.721C726.746 271.721 718.269 266.478 712.291 255.992C706.313 245.506 703.324 230.463 703.324 210.863V150.005H747.13C748.698 146.869 749.482 142.949 749.482 138.245C749.482 133.541 748.698 129.621 747.13 126.485H703.324V74.4473C699.012 73.0753 694.504 72.3893 689.8 72.3893C684.508 72.3893 680 73.0753 676.276 74.4473V126.485H654.52C653.148 129.621 652.462 133.541 652.462 138.245C652.462 142.949 653.148 146.869 654.52 150.005H676.276V178.229C676.276 196.457 674.316 211.598 670.396 223.652C666.476 235.706 661.478 245.261 655.402 252.317C649.326 259.373 643.103 264.371 636.733 267.311C630.363 270.251 624.728 271.721 619.828 271.721C623.16 271.721 625.414 273.093 626.59 275.837C627.766 278.581 628.354 281.521 628.354 284.657C628.354 287.793 627.521 290.635 625.855 293.183C624.189 295.731 621.494 297.005 617.77 297.005C629.922 297.005 641.976 293.673 653.932 287.009C665.888 280.345 675.982 269.957 684.214 255.845C688.33 268.781 694.749 278.875 703.471 286.127C712.193 293.379 722.924 297.005 735.664 297.005ZM617.77 297.005C615.222 297.005 613.164 295.78 611.596 293.33C610.028 290.88 609.244 287.891 609.244 284.363C609.244 280.639 610.126 277.601 611.89 275.249C613.654 272.897 616.3 271.721 619.828 271.721C612.184 271.721 606.745 268.83 603.511 263.048C600.277 257.266 598.66 249.181 598.66 238.793V154.121C594.348 152.749 589.84 152.063 585.136 152.063C582.588 152.063 580.138 152.259 577.786 152.651C575.434 153.043 573.474 153.533 571.906 154.121V209.393C571.906 250.357 557.892 270.839 529.864 270.839C518.104 270.839 509.48 266.968 503.992 259.226C498.504 251.484 495.76 239.087 495.76 222.035V154.121C491.448 152.749 487.038 152.063 482.53 152.063C479.982 152.063 477.532 152.259 475.18 152.651C472.828 153.043 470.77 153.533 469.006 154.121V197.633C469.006 207.629 467.879 217.919 465.625 228.503C463.371 239.087 459.402 248.299 453.718 256.139C449.602 261.431 445.192 265.351 440.488 267.899C435.784 270.447 431.374 271.721 427.258 271.721C427.205 271.721 427.152 271.722 427.099 271.722C430.165 271.757 432.373 272.982 433.726 275.396C435.098 277.846 435.784 280.933 435.784 284.657C435.784 288.381 434.853 291.37 432.991 293.624C431.129 295.878 428.532 297.005 425.2 297.005C433.236 297.005 440.733 295.437 447.691 292.301C454.649 289.165 460.774 284.951 466.066 279.659C469.986 275.739 473.514 270.937 476.65 265.253C485.862 286.421 502.914 297.005 527.806 297.005C539.566 297.005 549.758 294.898 558.382 290.684C567.006 286.47 574.062 280.345 579.55 272.309C586.214 288.773 598.954 297.005 617.77 297.005ZM425.2 297.005C422.456 297.005 420.349 295.682 418.879 293.036C417.409 290.39 416.674 287.499 416.674 284.363C416.674 281.031 417.507 278.091 419.173 275.543C420.815 273.032 423.457 271.758 427.099 271.722C427.054 271.722 427.009 271.721 426.964 271.721C420.3 271.721 415.547 269.173 412.705 264.077C409.863 258.981 408.442 250.749 408.442 239.381V214.097C408.442 196.653 404.081 182.737 395.359 172.349C386.637 161.961 374.926 156.767 360.226 156.767C358.266 156.767 356.404 156.865 354.64 157.061C363.46 140.989 370.026 124.868 374.338 108.698C378.65 92.5283 380.806 76.7993 380.806 61.5113C380.806 44.2633 376.837 30.2493 368.899 19.4693C360.961 8.68933 349.936 3.20132 335.824 3.00534C320.34 2.80902 308.482 8.00333 300.25 18.5873C292.018 29.1713 287.902 44.2633 287.902 63.8633V197.339C280.062 205.179 271.438 211.941 262.03 217.625C263.01 227.621 267.322 235.461 274.966 241.145C278.494 239.381 282.806 236.343 287.902 232.031V292.889C292.214 294.261 296.526 294.947 300.838 294.947C302.994 294.947 305.248 294.751 307.6 294.359C309.952 293.967 312.108 293.477 314.068 292.889V242.027C314.264 230.267 316.224 219.879 319.948 210.863C323.672 201.847 328.67 194.742 334.942 189.548C341.214 184.354 348.27 181.757 356.11 181.757C364.146 181.757 370.369 184.55 374.779 190.136C379.189 195.722 381.394 203.513 381.394 213.509V244.673C381.394 261.333 385.167 274.22 392.713 283.334C400.259 292.448 411.088 297.005 425.2 297.005ZM334.648 27.4073C341.508 27.4073 346.751 30.2983 350.377 36.0803C354.003 41.8623 355.816 50.2413 355.816 61.2173C355.816 78.8573 352.19 97.6243 344.938 117.518C337.686 137.412 327.102 157.551 313.186 177.935V63.5693C313.186 39.4613 320.34 27.4073 334.648 27.4073ZM837.094 300.005H836.8C831.942 300.005 827.166 299.594 822.604 298.783C818.029 297.97 813.544 296.732 809.272 295.105C804.991 293.474 801.005 291.506 797.424 289.255C794.518 287.428 791.814 285.375 789.36 283.133C780.461 288.515 771.621 292.654 763.054 295.448C753.779 298.472 744.564 300.005 735.664 300.005C728.996 300.005 722.75 299.037 717.1 297.128C711.409 295.205 706.178 292.28 701.553 288.434C696.972 284.626 692.945 280.014 689.583 274.728C687.269 271.089 685.227 267.062 683.483 262.702C680.133 267.764 676.494 272.325 672.621 276.311C667.394 281.69 661.597 286.171 655.392 289.63C649.234 293.063 642.952 295.676 636.723 297.398C630.464 299.128 624.087 300.005 617.77 300.005C612.832 300.005 608.213 299.453 604.04 298.365C599.804 297.26 595.913 295.573 592.474 293.351C589.025 291.122 585.948 288.301 583.328 284.967C581.711 282.91 580.244 280.624 578.94 278.136C576.841 280.708 574.555 283.072 572.108 285.196C568.4 288.415 564.225 291.168 559.699 293.38C555.182 295.587 550.195 297.264 544.877 298.363C539.605 299.453 533.862 300.005 527.806 300.005C503.799 300.005 486.524 290.441 476.371 271.555C473.857 275.426 471.116 278.851 468.187 281.781C462.662 287.306 456.181 291.765 448.923 295.036C445.263 296.686 441.407 297.941 437.464 298.766C433.531 299.588 429.405 300.005 425.2 300.005C417.775 300.005 411.09 298.776 405.33 296.353C399.491 293.896 394.469 290.159 390.402 285.248C386.385 280.396 383.337 274.484 381.344 267.677C379.386 260.989 378.394 253.25 378.394 244.673V213.509C378.394 208.811 377.875 204.598 376.853 200.986C375.864 197.49 374.373 194.465 372.424 191.995C368.579 187.125 363.242 184.757 356.11 184.757C352.563 184.757 349.152 185.351 345.974 186.52C342.782 187.695 339.714 189.491 336.855 191.859C333.939 194.274 331.277 197.181 328.943 200.499C326.583 203.854 324.489 207.726 322.72 212.009C320.945 216.306 319.57 221.004 318.633 225.973C317.69 230.968 317.163 236.379 317.068 242.053V295.121L314.93 295.763C312.858 296.384 310.558 296.908 308.093 297.319C305.589 297.736 303.148 297.947 300.838 297.947C296.237 297.947 291.578 297.207 286.992 295.748L284.902 295.083V238.295C281.691 240.73 278.852 242.556 276.307 243.829L274.657 244.654L273.176 243.553C264.86 237.369 260.105 228.745 259.044 217.918L258.859 216.036L260.478 215.058C269.285 209.737 277.497 203.359 284.902 196.089V63.8633C284.902 53.8426 285.976 44.8229 288.094 37.055C290.247 29.1602 293.54 22.3271 297.882 16.7455C302.208 11.1829 307.552 6.94849 313.766 4.15982C316.856 2.77307 320.218 1.72 323.759 1.02966C327.264 0.346405 331.04 0 334.983 0C335.275 0 335.571 0.00192261 335.862 0.00558472C350.9 0.214417 362.827 6.16449 371.314 17.6905C375.479 23.3459 378.642 29.9258 380.715 37.2473C382.766 44.4876 383.806 52.6512 383.806 61.5113C383.806 69.2554 383.252 77.2192 382.161 85.1815C381.071 93.1321 379.414 101.304 377.236 109.471C375.058 117.64 372.273 125.909 368.958 134.048C366.29 140.597 363.219 147.211 359.803 153.769C359.943 153.768 360.084 153.767 360.226 153.767C367.963 153.767 375.037 155.165 381.25 157.92C387.499 160.692 393.019 164.898 397.656 170.42C402.253 175.895 405.744 182.375 408.034 189.68C410.295 196.896 411.442 205.112 411.442 214.097V239.381C411.442 250.179 412.748 257.996 415.325 262.616C416.471 264.671 417.941 266.16 419.818 267.166C421.743 268.198 424.147 268.721 426.964 268.721C427.062 268.721 427.159 268.721 427.258 268.721C430.85 268.721 434.82 267.557 439.059 265.261C443.362 262.93 447.487 259.255 451.319 254.337C454.005 250.625 456.321 246.529 458.202 242.163C460.1 237.759 461.61 232.953 462.69 227.878C464.89 217.549 466.006 207.373 466.006 197.633V151.959L468.057 151.275C469.961 150.641 472.191 150.108 474.686 149.692C477.19 149.275 479.829 149.063 482.53 149.063C487.326 149.063 492.083 149.803 496.669 151.263L498.76 151.928V222.035C498.76 238.374 501.343 250.303 506.439 257.491C507.651 259.201 509.051 260.715 510.602 261.991C512.151 263.266 513.902 264.345 515.804 265.199C519.707 266.951 524.437 267.839 529.864 267.839C536.379 267.839 542.125 266.649 546.943 264.302C549.318 263.145 551.526 261.678 553.505 259.943C555.496 258.197 557.317 256.125 558.919 253.784C562.193 249 564.694 242.885 566.353 235.609C568.047 228.183 568.906 219.362 568.906 209.393V152.042L570.852 151.312C572.594 150.659 574.761 150.114 577.292 149.692C579.796 149.275 582.435 149.063 585.136 149.063C590.127 149.063 594.983 149.803 599.569 151.263L601.66 151.928V238.793C601.66 248.614 603.163 256.282 606.129 261.584C607.471 263.984 609.203 265.724 611.423 266.904C613.692 268.11 616.52 268.721 619.828 268.721C624.268 268.721 629.532 267.33 635.475 264.587C641.423 261.842 647.363 257.055 653.128 250.36C656.003 247.022 658.668 243.021 661.049 238.469C663.459 233.861 665.644 228.564 667.543 222.725C669.436 216.902 670.879 210.222 671.83 202.871C672.789 195.463 673.276 187.172 673.276 178.229V153.005H652.558L651.771 151.208C650.239 147.705 649.462 143.344 649.462 138.245C649.462 133.147 650.239 128.786 651.771 125.283L652.558 123.485H673.276V72.3555L675.239 71.6323C679.278 70.144 684.177 69.3893 689.8 69.3893C694.791 69.3893 699.647 70.1293 704.233 71.5886L706.324 72.2537V123.485H748.984L749.813 125.144C751.584 128.685 752.482 133.093 752.482 138.245C752.482 143.397 751.584 147.805 749.813 151.347L748.984 153.005H706.324V210.863C706.324 220.422 707.059 228.967 708.508 236.261C709.932 243.43 712.082 249.569 714.897 254.507C717.621 259.285 720.922 262.895 724.71 265.238C726.572 266.389 728.6 267.265 730.739 267.842C732.905 268.425 735.254 268.721 737.722 268.721C743.071 268.721 748.603 267.829 754.162 266.068C759.168 264.483 765.021 261.846 771.591 258.217C768.357 252.058 765.853 245.381 764.133 238.328C762.175 230.292 761.182 221.546 761.182 212.333C761.182 206.079 761.772 200.097 762.936 194.554C764.108 188.975 765.894 183.686 768.244 178.833C770.598 173.97 773.459 169.55 776.747 165.698C780.046 161.832 783.862 158.434 788.089 155.599C792.34 152.747 796.944 150.577 801.771 149.15C806.583 147.727 811.741 147.005 817.102 147.005C821.651 147.005 826.012 147.545 830.065 148.611C834.146 149.683 838.021 151.316 841.583 153.463C845.135 155.605 848.342 158.19 851.115 161.146C853.883 164.097 856.29 167.494 858.269 171.243C860.244 174.985 861.745 179.064 862.729 183.366C863.706 187.634 864.202 192.236 864.202 197.045C864.202 203.599 863.226 209.966 861.302 215.969C859.38 221.967 856.461 227.756 852.626 233.176C848.842 238.523 843.715 244.152 837.384 249.907C832.029 254.775 825.676 259.859 818.456 265.056C820.391 266.024 822.507 266.817 824.786 267.427C828.727 268.481 833.264 269.015 838.27 269.015C843.658 269.015 849.126 268.26 854.524 266.771C859.98 265.266 865.323 263.167 870.405 260.532L872.058 259.675L873.56 260.776C876.985 263.288 879.566 266.984 881.233 271.762C882.807 276.275 883.606 280.712 883.606 284.951V286.686L882.103 287.551C875.463 291.374 868.323 294.434 860.88 296.647C853.385 298.875 845.382 300.005 837.094 300.005ZM737.722 274.721C735.103 274.721 733.259 275.404 732.084 276.808C730.792 278.35 730.138 280.892 730.138 284.363C730.138 287.467 730.759 289.974 731.986 291.813C733.281 293.756 734.632 294.005 735.664 294.005C738.109 294.005 739.85 293.277 741.142 291.714C742.559 289.998 743.248 287.69 743.248 284.657C743.248 281.015 742.682 278.231 741.611 276.606C741.033 275.729 740.068 274.721 737.722 274.721ZM619.828 274.721C616.429 274.721 615.039 276.05 614.29 277.049C612.932 278.86 612.244 281.32 612.244 284.363C612.244 287.292 612.876 289.765 614.122 291.713C615.423 293.745 616.755 294.005 617.77 294.005C621.322 294.005 622.652 292.599 623.344 291.542C624.696 289.473 625.354 287.221 625.354 284.657C625.354 281.945 624.842 279.375 623.832 277.019C623.493 276.228 623.043 275.67 622.457 275.313C621.812 274.92 620.928 274.721 619.828 274.721ZM427.095 274.722C423.661 274.765 422.362 276.147 421.684 277.185C420.331 279.254 419.674 281.602 419.674 284.363C419.674 287.006 420.271 289.366 421.501 291.579C422.689 293.717 424.037 294.005 425.2 294.005C427.645 294.005 429.386 293.277 430.678 291.714C432.095 289.998 432.784 287.69 432.784 284.657C432.784 281.47 432.22 278.848 431.108 276.862C430.561 275.885 429.61 274.759 427.095 274.722ZM816.22 177.407C809.531 177.407 804.121 180.37 799.681 186.464C797.396 189.601 795.656 193.151 794.51 197.016C793.349 200.934 792.76 205.296 792.76 209.981C792.76 217.469 793.428 224.273 794.746 230.205C795.767 234.799 797.199 238.965 799.016 242.633C804.13 238.963 808.696 235.302 812.618 231.726C817.177 227.568 820.987 223.414 823.943 219.38C826.858 215.401 829.067 211.481 830.508 207.729C831.912 204.075 832.624 200.48 832.624 197.045C832.624 193.835 832.236 190.956 831.472 188.488C830.74 186.124 829.638 184.07 828.197 182.382C825.339 179.035 821.421 177.407 816.22 177.407ZM334.648 30.4073C331.608 30.4073 328.943 31.0384 326.727 32.2832C324.491 33.5392 322.66 35.4023 321.131 37.979C317.849 43.5081 316.186 52.1179 316.186 63.5693V167.959C320.86 160.652 325.122 153.346 328.905 146.147C334.11 136.243 338.556 126.266 342.119 116.491C345.674 106.739 348.376 97.1377 350.151 87.9535C351.919 78.8009 352.816 69.8056 352.816 61.2173C352.816 50.8652 351.14 42.9441 347.835 37.6742C346.304 35.2334 344.434 33.3925 342.276 32.2027C340.116 31.0113 337.549 30.4073 334.648 30.4073Z" fill="white"/>
</svg>
