<svg xmlns="http://www.w3.org/2000/svg" xmlns:xlink="http://www.w3.org/1999/xlink" viewBox="0 0 15 18" id="svg11603692257"><path d="M 7.972 14.288 C 7.778 13.041 7.392 11.83 6.828 10.697 C 7.483 11.181 8.185 11.732 8.933 12.365 C 9.634 12.957 10.135 13.55 10.414 14.093 C 10.694 14.637 10.749 15.125 10.57 15.516 C 10.37 15.953 9.873 16.213 9.359 16.144 C 8.657 16.05 8.144 15.388 7.972 14.288 Z M 12.101 8.871 C 11.549 9.841 10.885 10.668 10.421 11.197 C 10.336 11.12 10.248 11.044 10.157 10.967 C 7.174 8.444 4.89 7.157 3.38 6.306 C 2.866 6.016 2.306 5.7 2.02 5.482 C 2.436 5.035 3.335 4.245 4.473 3.515 C 5.643 2.764 7.061 2.08 8.46 1.895 L 8.453 1.848 L 8.46 1.895 C 9.849 1.711 10.968 2.048 11.887 2.92 C 12.706 3.699 13.104 4.584 13.108 5.626 C 13.111 6.74 12.666 7.878 12.101 8.871 Z M 9.107 17.971 C 9.244 17.99 9.382 17.999 9.519 17.999 C 10.699 17.999 11.798 17.329 12.281 16.273 C 12.553 15.68 12.902 14.326 11.679 12.586 C 12.2 12.012 13.018 11.027 13.71 9.817 C 14.413 8.588 14.987 7.125 14.984 5.626 C 14.981 4.079 14.376 2.722 13.191 1.595 C 11.344 -0.161 8.824 -0.47 5.914 0.687 C 4.607 1.206 3.142 2.108 1.999 3.012 C 1.427 3.464 0.934 3.918 0.582 4.325 C 0.406 4.529 0.264 4.722 0.165 4.898 C 0.066 5.074 0.007 5.237 0.002 5.379 C -0.029 6.294 0.626 6.837 1.645 7.445 C 1.657 7.453 1.669 7.461 1.681 7.469 C 1.715 7.49 5.375 9.828 6.118 14.569 C 6.271 15.548 6.628 16.351 7.18 16.953 C 7.701 17.52 8.368 17.873 9.107 17.971 Z" fill="var(--token-9295f697-70ab-4b76-834a-2ceab385a691, rgb(32, 34, 33)) /* {&quot;name&quot;:&quot;Primary&quot;} */"></path></svg>