<svg width="133" height="50" viewBox="0 0 133 50" fill="none" xmlns="http://www.w3.org/2000/svg">
<path d="M16.5571 49.0177C13.6561 49.0839 10.8003 48.2906 8.34906 46.7377C5.97985 45.1793 4.09953 42.9828 2.92505 40.4017C1.59407 37.4558 0.9381 34.2497 1.00506 31.0177C0.934692 27.7674 1.59922 24.5433 2.94906 21.5857C4.11888 19.0297 5.97073 16.8457 8.30106 15.2737C10.624 13.7546 13.3499 12.9686 16.1251 13.0177C18.3017 13.005 20.458 13.4378 22.4611 14.2897C24.2997 15.0319 25.9305 16.2096 27.2131 17.7217C26.983 18.4157 26.5971 19.0478 26.0851 19.5697C25.6021 20.1421 25.0055 20.6079 24.3331 20.9377C23.3648 19.8037 22.1608 18.8945 20.8051 18.2737C19.4108 17.6424 17.8955 17.3229 16.3651 17.3377C14.3405 17.2925 12.3522 17.8798 10.6771 19.0177C9.00576 20.2066 7.70721 21.8464 6.93306 23.7457C6.0037 26.0381 5.55444 28.4968 5.61306 30.9697C5.55383 33.4784 6.0198 35.9717 6.98106 38.2897C7.77585 40.212 9.10937 41.8637 10.8211 43.0457C12.5373 44.1698 14.554 44.7472 16.6051 44.7017C18.2143 44.754 19.8127 44.4196 21.266 43.7263C22.7193 43.0331 23.985 42.0014 24.9571 40.7177C25.5742 41.0115 26.1465 41.3913 26.6571 41.8457C27.215 42.2963 27.6936 42.8371 28.0731 43.4457C26.871 45.2193 25.2128 46.6357 23.2731 47.5457C21.176 48.5423 18.8787 49.0458 16.5571 49.0177ZM33.0211 39.8977C32.4104 39.4502 31.905 38.8747 31.5402 38.2114C31.1754 37.5481 30.96 36.813 30.9091 36.0577C32.446 35.1289 33.8645 34.0168 35.1331 32.7457V10.9537C35.1331 7.75371 35.8051 5.28971 37.1491 3.56171C37.8377 2.69775 38.7264 2.01458 39.7384 1.57131C40.7504 1.12805 41.8551 0.938032 42.9571 1.01771C44.0081 0.991652 45.0495 1.22294 45.9907 1.69144C46.9319 2.15994 47.7442 2.85144 48.3571 3.70571C49.7298 5.72349 50.4119 8.13174 50.3011 10.5697C50.2862 13.1714 49.9312 15.76 49.2451 18.2697C48.4959 21.0232 47.416 23.6759 46.0291 26.1697C46.3319 26.1369 46.6364 26.1209 46.9411 26.1217C48.0274 26.0789 49.1092 26.286 50.1029 26.7271C51.0967 27.1681 51.976 27.8314 52.6731 28.6657C54.1787 30.6084 54.9367 33.0272 54.8091 35.4817V39.6097C54.7187 40.9902 54.9587 42.3724 55.5091 43.6417C55.7374 44.0503 56.078 44.385 56.4906 44.6061C56.9031 44.8273 57.3704 44.9257 57.8371 44.8897C58.0585 44.8748 58.2796 44.9233 58.4744 45.0296C58.6692 45.1358 58.8297 45.2955 58.9371 45.4897C59.1767 45.9566 59.2924 46.4773 59.2731 47.0017C59.3004 47.5278 59.1402 48.0466 58.8211 48.4657C58.666 48.6496 58.4705 48.7951 58.2498 48.8909C58.0291 48.9867 57.7893 49.0301 57.5491 49.0177C56.5536 49.0772 55.5578 48.9068 54.6388 48.5197C53.7197 48.1327 52.9021 47.5394 52.2491 46.7857C50.9121 44.9634 50.258 42.7293 50.4011 40.4737V35.3857C50.4827 34.0282 50.102 32.6831 49.3211 31.5697C48.958 31.1161 48.4923 30.7555 47.9623 30.5176C47.4322 30.2798 46.8532 30.1715 46.2731 30.2017C45.0057 30.197 43.779 30.6485 42.8171 31.4737C41.7269 32.4144 40.886 33.6098 40.3691 34.9537C39.7322 36.5743 39.4066 38.3005 39.4091 40.0417V48.3457C39.0624 48.4478 38.7097 48.5279 38.3531 48.5857C37.9898 48.6492 37.6218 48.6826 37.2531 48.6857C36.533 48.6832 35.8178 48.5685 35.1331 48.3457V38.4097C34.4878 38.9842 33.7792 39.4834 33.0211 39.8977ZM39.2611 10.9057V29.5777C41.3927 26.5182 43.1342 23.2046 44.4451 19.7137C45.5701 16.7772 46.1712 13.666 46.2211 10.5217C46.3062 9.0995 45.999 7.68125 45.3331 6.42171C45.0733 5.97535 44.6972 5.60789 44.2449 5.35851C43.7927 5.10913 43.2812 4.9872 42.7651 5.00571C40.4291 5.00304 39.2611 6.96971 39.2611 10.9057ZM57.8851 44.8897C58.6458 44.865 59.3883 44.6505 60.0451 44.2657C60.8902 43.7821 61.6257 43.1283 62.2051 42.3457C63.1637 40.9954 63.8261 39.4579 64.1491 37.8337C64.5092 36.1777 64.6943 34.4884 64.7011 32.7937V25.6937C65.0301 25.5851 65.3671 25.5021 65.7091 25.4457C66.1056 25.3793 66.507 25.3459 66.9091 25.3457C67.6421 25.3452 68.3708 25.4586 69.0691 25.6817V36.7697C69.0717 39.559 69.5197 41.5844 70.4131 42.8457C70.901 43.4916 71.5437 44.0041 72.2819 44.3362C73.0201 44.6682 73.8301 44.8091 74.6371 44.7457C79.2131 44.7457 81.5011 41.4017 81.5011 34.7137V25.6897C81.8127 25.5795 82.1342 25.4992 82.4611 25.4497C82.8576 25.3833 83.259 25.3499 83.6611 25.3497C84.41 25.3468 85.1549 25.4601 85.8691 25.6857V39.5137C85.7982 40.8791 86.0705 42.2405 86.6611 43.4737C86.9236 43.9394 87.314 44.3203 87.786 44.5712C88.2581 44.8221 88.7922 44.9326 89.3251 44.8897C89.5561 44.87 89.7873 44.9246 89.9852 45.0455C90.183 45.1663 90.3371 45.3472 90.4251 45.5617C90.6185 46.017 90.7165 46.5071 90.7131 47.0017C90.7195 47.4955 90.5788 47.9801 90.3091 48.3937C90.1632 48.6044 89.9644 48.773 89.7327 48.8826C89.5009 48.9921 89.2445 49.0387 88.9891 49.0177C87.6513 49.1195 86.317 48.7805 85.1902 48.0523C84.0633 47.3242 83.2059 46.2471 82.7491 44.9857C81.8818 46.273 80.6895 47.308 79.2931 47.9857C77.7299 48.7069 76.0221 49.0599 74.3011 49.0177C70.2344 49.0177 67.4504 47.2897 65.9491 43.8337C65.4864 44.695 64.9046 45.4867 64.2211 46.1857C63.3553 47.0509 62.3386 47.7504 61.2211 48.2497C60.0662 48.7657 58.8139 49.0276 57.5491 49.0177C57.333 49.02 57.1209 48.9601 56.9379 48.8452C56.755 48.7303 56.6089 48.5653 56.5171 48.3697C56.2768 47.9367 56.1528 47.4489 56.1571 46.9537C56.1473 46.4439 56.2893 45.9426 56.5651 45.5137C56.7109 45.303 56.9097 45.1344 57.1414 45.0249C57.3732 44.9153 57.6296 44.8687 57.8851 44.8897ZM89.3251 44.8897C90.2859 44.8495 91.227 44.604 92.0851 44.1697C93.2638 43.5802 94.303 42.7455 95.1331 41.7217C96.2488 40.3378 97.0807 38.7475 97.5811 37.0417C98.2813 34.6339 98.6051 32.1324 98.5411 29.6257V25.0177H94.9891C94.7469 24.4074 94.6326 23.754 94.6531 23.0977C94.6326 22.4415 94.7469 21.788 94.9891 21.1777H98.5411V12.6777C99.252 12.4387 99.9993 12.3263 100.749 12.3457C101.498 12.3428 102.243 12.4561 102.957 12.6817V21.1817H110.109C110.384 21.7834 110.515 22.4406 110.493 23.1017C110.515 23.7628 110.384 24.42 110.109 25.0217H102.957V34.9577C102.816 37.4979 103.319 40.0325 104.421 42.3257C104.8 43.1022 105.391 43.7553 106.126 44.2092C106.861 44.6631 107.709 44.8991 108.573 44.8897C109.501 44.8897 109.965 45.5937 109.965 47.0017C109.991 47.5283 109.83 48.0471 109.509 48.4657C109.354 48.6496 109.158 48.7951 108.938 48.8909C108.717 48.9867 108.477 49.0301 108.237 49.0177C106.329 49.0776 104.463 48.4485 102.981 47.2457C101.476 45.9371 100.384 44.2195 99.8371 42.3017C98.6802 44.4131 96.9713 46.1704 94.8931 47.3857C93.1002 48.4299 91.0676 48.9921 88.9931 49.0177C88.7868 49.0167 88.5845 48.9606 88.4073 48.8551C88.23 48.7496 88.0843 48.5986 87.9851 48.4177C87.718 47.9772 87.5847 47.4686 87.6011 46.9537C87.5776 46.4237 87.7295 45.9008 88.0331 45.4657C88.1854 45.272 88.3827 45.1183 88.6078 45.0179C88.8329 44.9175 89.0791 44.8735 89.3251 44.8897ZM108.237 49.0177C108.034 49.0186 107.834 48.9663 107.657 48.8659C107.48 48.7656 107.333 48.6207 107.229 48.4457C106.956 47.9989 106.822 47.4808 106.845 46.9577C106.845 45.5817 107.421 44.8937 108.573 44.8937C109.535 44.8883 110.49 44.7345 111.405 44.4377C112.577 44.0368 113.703 43.5139 114.765 42.8777C113.473 40.5281 112.828 37.8781 112.893 35.1977C112.855 33.3848 113.231 31.5872 113.993 29.9417C114.673 28.4865 115.735 27.2425 117.065 26.3417C118.385 25.4593 119.942 24.999 121.529 25.0217C122.844 24.997 124.14 25.3376 125.273 26.0057C126.356 26.6564 127.237 27.5953 127.817 28.7177C128.444 29.9505 128.757 31.3189 128.729 32.7017C128.74 34.7172 128.109 36.6838 126.929 38.3177C125.225 40.4818 123.173 42.3473 120.857 43.8377C122.083 44.6296 123.528 45.0145 124.985 44.9377C125.927 44.9363 126.865 44.8071 127.773 44.5537C128.704 44.2967 129.604 43.9428 130.461 43.4977C130.973 43.8944 131.35 44.4391 131.541 45.0577C131.772 45.6967 131.894 46.3702 131.901 47.0497C130.841 47.6594 129.713 48.1427 128.541 48.4897C127.325 48.8462 126.064 49.0241 124.797 49.0177H124.749C123.274 49.0274 121.81 48.7657 120.429 48.2457C119.173 47.7892 118.029 47.0706 117.073 46.1377C114.459 47.9129 111.395 48.9115 108.237 49.0177ZM117.073 34.8097C116.971 36.9092 117.434 38.9976 118.413 40.8577C120.176 39.711 121.741 38.2842 123.045 36.6337C123.957 35.5171 124.487 34.1376 124.557 32.6977C124.614 31.7219 124.316 30.7585 123.717 29.9857C123.428 29.6566 123.069 29.3972 122.666 29.2268C122.263 29.0563 121.826 28.9794 121.389 29.0017C120.773 29.0012 120.167 29.1546 119.626 29.448C119.084 29.7414 118.625 30.1655 118.289 30.6817C117.449 31.8904 117.022 33.3385 117.073 34.8097Z" fill="white"/>
<path d="M57.5491 49.0177C57.7893 49.0301 58.0291 48.9867 58.2498 48.8909C58.4705 48.7951 58.666 48.6496 58.8211 48.4657C59.1402 48.0466 59.3004 47.5278 59.2731 47.0017C59.2924 46.4773 59.1767 45.9566 58.9371 45.4897C58.8297 45.2955 58.6692 45.1358 58.4744 45.0296C58.2796 44.9233 58.0585 44.8748 57.8371 44.8897C57.3704 44.9257 56.9031 44.8273 56.4906 44.6061C56.078 44.385 55.7374 44.0503 55.5091 43.6417C54.9587 42.3724 54.7187 40.9902 54.8091 39.6097V35.4817C54.9367 33.0272 54.1787 30.6084 52.6731 28.6657C51.976 27.8314 51.0967 27.1681 50.1029 26.7271C49.1092 26.286 48.0274 26.0789 46.9411 26.1217C46.6364 26.1209 46.3319 26.1369 46.0291 26.1697C47.416 23.6759 48.4959 21.0232 49.2451 18.2697C49.9312 15.76 50.2862 13.1714 50.3011 10.5697C50.4119 8.13174 49.7298 5.72349 48.3571 3.70571C47.7442 2.85144 46.9319 2.15994 45.9907 1.69144C45.0495 1.22294 44.0081 0.991652 42.9571 1.01771C41.8551 0.938032 40.7504 1.12805 39.7384 1.57131C38.7264 2.01458 37.8377 2.69775 37.1491 3.56171C35.8051 5.28971 35.1331 7.75371 35.1331 10.9537V32.7457C33.8645 34.0168 32.446 35.1289 30.9091 36.0577C30.96 36.813 31.1754 37.5481 31.5402 38.2114C31.905 38.8747 32.4104 39.4502 33.0211 39.8977C33.7792 39.4834 34.4878 38.9842 35.1331 38.4097V48.3457C35.8178 48.5685 36.533 48.6832 37.2531 48.6857C37.6218 48.6826 37.9898 48.6492 38.3531 48.5857C38.7097 48.5279 39.0624 48.4478 39.4091 48.3457V40.0417C39.4066 38.3005 39.7322 36.5743 40.3691 34.9537C40.886 33.6098 41.7269 32.4144 42.8171 31.4737C43.779 30.6485 45.0057 30.197 46.2731 30.2017C46.8532 30.1715 47.4322 30.2798 47.9623 30.5176C48.4923 30.7555 48.958 31.1161 49.3211 31.5697C50.102 32.6831 50.4827 34.0282 50.4011 35.3857V40.4737C50.258 42.7293 50.9121 44.9634 52.2491 46.7857C52.9021 47.5394 53.7197 48.1327 54.6388 48.5197C55.5578 48.9068 56.5536 49.0772 57.5491 49.0177ZM57.5491 49.0177C58.8139 49.0276 60.0662 48.7657 61.2211 48.2497C62.3386 47.7504 63.3553 47.0509 64.2211 46.1857C64.9046 45.4867 65.4864 44.695 65.9491 43.8337C67.4504 47.2897 70.2344 49.0177 74.3011 49.0177C76.0221 49.0599 77.7299 48.7069 79.2931 47.9857C80.6895 47.308 81.8818 46.273 82.7491 44.9857C83.2059 46.2471 84.0633 47.3242 85.1902 48.0523C86.317 48.7805 87.6513 49.1195 88.9891 49.0177C89.2445 49.0387 89.5009 48.9921 89.7327 48.8826C89.9644 48.773 90.1632 48.6044 90.3091 48.3937C90.5788 47.9801 90.7195 47.4955 90.7131 47.0017C90.7165 46.5071 90.6185 46.017 90.4251 45.5617C90.3371 45.3472 90.183 45.1663 89.9852 45.0455C89.7873 44.9246 89.5561 44.87 89.3251 44.8897M57.5491 49.0177C57.333 49.02 57.1209 48.9601 56.9379 48.8452C56.755 48.7303 56.6089 48.5653 56.5171 48.3697C56.2768 47.9367 56.1528 47.4489 56.1571 46.9537C56.1473 46.4439 56.2893 45.9426 56.5651 45.5137C56.7109 45.303 56.9097 45.1344 57.1414 45.0249C57.3732 44.9153 57.6296 44.8687 57.8851 44.8897C58.6458 44.865 59.3883 44.6505 60.0451 44.2657C60.8902 43.7821 61.6257 43.1283 62.2051 42.3457C63.1637 40.9954 63.8261 39.4579 64.1491 37.8337C64.5092 36.1777 64.6943 34.4884 64.7011 32.7937V25.6937C65.0301 25.5851 65.3671 25.5021 65.7091 25.4457C66.1056 25.3793 66.507 25.3459 66.9091 25.3457C67.6421 25.3452 68.3708 25.4586 69.0691 25.6817V36.7697C69.0717 39.559 69.5197 41.5844 70.4131 42.8457C70.901 43.4916 71.5437 44.0041 72.2819 44.3362C73.0201 44.6682 73.8301 44.8091 74.6371 44.7457C79.2131 44.7457 81.5011 41.4017 81.5011 34.7137V25.6897C81.8127 25.5795 82.1342 25.4992 82.4611 25.4497C82.8576 25.3833 83.259 25.3499 83.6611 25.3497C84.41 25.3468 85.1549 25.4601 85.8691 25.6857V39.5137C85.7982 40.8791 86.0705 42.2405 86.6611 43.4737C86.9236 43.9394 87.314 44.3203 87.786 44.5712C88.2581 44.8221 88.7922 44.9326 89.3251 44.8897M89.3251 44.8897C90.2859 44.8495 91.227 44.604 92.0851 44.1697C93.2638 43.5802 94.303 42.7455 95.1331 41.7217C96.2488 40.3378 97.0807 38.7475 97.5811 37.0417C98.2813 34.6339 98.6051 32.1324 98.5411 29.6257V25.0177H94.9891C94.7469 24.4074 94.6326 23.754 94.6531 23.0977C94.6326 22.4415 94.7469 21.788 94.9891 21.1777H98.5411V12.6777C99.252 12.4387 99.9993 12.3263 100.749 12.3457C101.498 12.3428 102.243 12.4561 102.957 12.6817V21.1817H110.109C110.384 21.7834 110.515 22.4406 110.493 23.1017C110.515 23.7628 110.384 24.42 110.109 25.0217H102.957V34.9577C102.816 37.4979 103.319 40.0325 104.421 42.3257C104.8 43.1022 105.391 43.7553 106.126 44.2092C106.861 44.6631 107.709 44.8991 108.573 44.8897C109.501 44.8897 109.965 45.5937 109.965 47.0017C109.991 47.5283 109.83 48.0471 109.509 48.4657C109.354 48.6496 109.158 48.7951 108.938 48.8909C108.717 48.9867 108.477 49.0301 108.237 49.0177M89.3251 44.8897C89.0791 44.8735 88.8329 44.9175 88.6078 45.0179C88.3827 45.1183 88.1854 45.272 88.0331 45.4657C87.7295 45.9008 87.5776 46.4237 87.6011 46.9537C87.5847 47.4686 87.718 47.9772 87.9851 48.4177C88.0843 48.5986 88.23 48.7496 88.4073 48.8551C88.5845 48.9606 88.7868 49.0167 88.9931 49.0177C91.0676 48.9921 93.1002 48.4299 94.8931 47.3857C96.9713 46.1704 98.6802 44.4131 99.8371 42.3017C100.384 44.2195 101.476 45.9371 102.981 47.2457C104.463 48.4485 106.329 49.0776 108.237 49.0177M108.237 49.0177C108.034 49.0186 107.834 48.9663 107.657 48.8659C107.48 48.7656 107.333 48.6207 107.229 48.4457C106.956 47.9989 106.822 47.4808 106.845 46.9577C106.845 45.5817 107.421 44.8937 108.573 44.8937C109.535 44.8883 110.49 44.7345 111.405 44.4377C112.577 44.0368 113.703 43.5139 114.765 42.8777C113.473 40.5281 112.828 37.8781 112.893 35.1977C112.855 33.3848 113.231 31.5872 113.993 29.9417C114.673 28.4865 115.735 27.2425 117.065 26.3417C118.385 25.4593 119.942 24.999 121.529 25.0217C122.844 24.997 124.14 25.3376 125.273 26.0057C126.356 26.6564 127.237 27.5953 127.817 28.7177C128.444 29.9505 128.757 31.3189 128.729 32.7017C128.74 34.7172 128.109 36.6838 126.929 38.3177C125.225 40.4818 123.173 42.3473 120.857 43.8377C122.083 44.6296 123.528 45.0145 124.985 44.9377C125.927 44.9363 126.865 44.8071 127.773 44.5537C128.704 44.2967 129.604 43.9428 130.461 43.4977C130.973 43.8944 131.35 44.4391 131.541 45.0577C131.772 45.6967 131.894 46.3702 131.901 47.0497C130.841 47.6594 129.713 48.1427 128.541 48.4897C127.325 48.8462 126.064 49.0241 124.797 49.0177H124.749C123.274 49.0274 121.81 48.7657 120.429 48.2457C119.173 47.7892 118.029 47.0706 117.073 46.1377C114.459 47.9129 111.395 48.9115 108.237 49.0177ZM16.5571 49.0177C13.6561 49.0839 10.8003 48.2906 8.34906 46.7377C5.97985 45.1793 4.09953 42.9828 2.92505 40.4017C1.59407 37.4558 0.9381 34.2497 1.00506 31.0177C0.934692 27.7674 1.59922 24.5433 2.94906 21.5857C4.11888 19.0297 5.97073 16.8457 8.30106 15.2737C10.624 13.7546 13.3499 12.9686 16.1251 13.0177C18.3017 13.005 20.458 13.4378 22.4611 14.2897C24.2997 15.0319 25.9305 16.2096 27.2131 17.7217C26.983 18.4157 26.5971 19.0478 26.0851 19.5697C25.6021 20.1421 25.0055 20.6079 24.3331 20.9377C23.3648 19.8037 22.1608 18.8945 20.8051 18.2737C19.4108 17.6424 17.8955 17.3229 16.3651 17.3377C14.3405 17.2925 12.3522 17.8798 10.6771 19.0177C9.00576 20.2066 7.70721 21.8464 6.93306 23.7457C6.0037 26.0381 5.55444 28.4968 5.61306 30.9697C5.55383 33.4784 6.0198 35.9717 6.98106 38.2897C7.77585 40.212 9.10937 41.8637 10.8211 43.0457C12.5373 44.1698 14.554 44.7472 16.6051 44.7017C18.2143 44.754 19.8127 44.4196 21.266 43.7263C22.7193 43.0331 23.985 42.0014 24.9571 40.7177C25.5742 41.0115 26.1465 41.3913 26.6571 41.8457C27.215 42.2963 27.6936 42.8371 28.0731 43.4457C26.871 45.2193 25.2128 46.6357 23.2731 47.5457C21.176 48.5423 18.8787 49.0458 16.5571 49.0177ZM39.2611 10.9057V29.5777C41.3927 26.5182 43.1342 23.2046 44.4451 19.7137C45.5701 16.7772 46.1712 13.666 46.2211 10.5217C46.3062 9.0995 45.999 7.68125 45.3331 6.42171C45.0733 5.97535 44.6972 5.60789 44.2449 5.35851C43.7927 5.10913 43.2812 4.9872 42.7651 5.00571C40.4291 5.00304 39.2611 6.96971 39.2611 10.9057ZM117.073 34.8097C116.971 36.9092 117.434 38.9976 118.413 40.8577C120.176 39.711 121.741 38.2842 123.045 36.6337C123.957 35.5171 124.487 34.1376 124.557 32.6977C124.614 31.7219 124.316 30.7585 123.717 29.9857C123.428 29.6566 123.069 29.3972 122.666 29.2268C122.263 29.0563 121.826 28.9794 121.389 29.0017C120.773 29.0012 120.167 29.1546 119.626 29.448C119.084 29.7414 118.625 30.1655 118.289 30.6817C117.449 31.8904 117.022 33.3385 117.073 34.8097Z" stroke="white" stroke-width="0.7"/>
</svg>
