<svg width="2531" height="740" viewBox="0 0 2531 740" fill="none" xmlns="http://www.w3.org/2000/svg">
<path d="M2525.57 248.063L2527.27 245.136H2523.89H2431.57H2430.44L2429.88 246.118L2302.18 469.587L2175.26 246.123L2174.7 245.136H2173.57H2080.47H2077.09L2078.78 248.063L2258.41 558.475V735.126V737.076H2260.36H2343.99H2345.94V735.126V558.479L2525.57 248.063Z" fill="#262626" stroke="#262626" stroke-width="3.9"/>
<path d="M321.938 585.43C314.155 534.489 298.668 485.046 276.022 438.793C302.325 458.56 330.508 481.071 360.518 506.891C388.64 531.086 408.752 555.281 419.967 577.471C431.191 599.675 433.394 619.617 426.212 635.584C418.197 653.4 398.248 664.014 377.626 661.215C349.445 657.388 328.854 630.328 321.938 585.43ZM487.643 364.237C465.497 403.825 438.85 437.627 420.213 459.194C416.814 456.083 413.287 452.955 409.631 449.81C289.91 346.808 198.266 294.237 137.667 259.476C117.04 247.642 94.5643 234.742 83.0763 225.861C99.7749 207.609 135.861 175.354 181.51 145.546C228.477 114.878 285.372 86.9302 341.526 79.3816L341.266 77.449L341.526 79.3816C397.292 71.8826 442.191 85.6081 479.048 121.251C511.939 153.062 527.921 189.166 528.054 231.736C528.196 277.232 510.33 323.682 487.643 364.237ZM367.497 735.831C372.983 736.576 378.513 736.95 384.049 736.949C431.39 736.947 475.489 709.594 494.886 666.475C505.78 642.264 519.812 586.977 470.718 515.934C491.63 492.499 524.458 452.25 552.217 402.871C580.425 352.695 603.486 292.94 603.354 231.74C603.218 168.547 578.972 113.136 531.391 67.1222C457.272 -4.55439 356.122 -17.1757 239.331 30.0512C186.898 51.2537 128.09 88.0933 82.2085 125C59.2645 143.456 39.4984 161.972 25.3574 178.607C18.2877 186.924 12.5917 194.809 8.60808 202.013C4.63928 209.19 2.28831 215.837 2.09301 221.644C0.8371 258.999 27.137 281.165 68.0319 306.007C68.5021 306.337 68.9814 306.657 69.4698 306.968C70.8149 307.824 217.698 403.293 247.517 596.891C253.676 636.882 267.993 669.677 290.174 694.248C311.077 717.403 337.82 731.801 367.497 735.831Z" fill="#262626" stroke="#262626" stroke-width="3.9"/>
<path d="M976.855 442.451V442.982C976.593 512.311 925.138 566.586 857.477 566.586C790.428 566.586 738.891 513.61 738.891 442.449C738.891 371.264 790.453 316.726 858.27 316.726C924.501 316.728 976.855 371.266 976.855 442.451ZM1244.83 735.195V594.257C1276.07 628.045 1321.2 647.406 1372.93 647.406C1484.35 647.409 1565.99 559.18 1565.99 441.658C1565.99 325.722 1484.35 236.7 1372.93 236.7C1317.6 236.7 1268.73 258.11 1239.28 296.173V247.373V245.423H1237.33H1159.61H1157.66V247.373V735.195V737.145H1159.61H1242.88H1244.83V735.195ZM1745.21 735.195V594.257C1776.46 628.045 1821.59 647.406 1873.31 647.406C1984.74 647.409 2066.37 559.18 2066.37 441.658C2066.37 325.722 1984.74 236.7 1873.31 236.7C1817.99 236.7 1769.11 258.11 1739.66 296.173V247.373V245.423H1737.71H1660H1658.05V247.373V735.195V737.145H1660H1743.26H1745.21V735.195ZM650.14 441.658C647.762 552.974 744.597 649.785 857.477 647.41C971.933 649.787 1068.78 552.984 1066.4 441.659C1068.78 330.321 971.918 234.319 857.471 236.701C744.631 235.118 647.761 328.723 650.14 441.658ZM1476.45 442.451C1476.45 516 1424.9 567.381 1359.45 567.381C1329.36 567.381 1300.53 557.029 1279.23 536.216C1257.95 515.421 1244.03 484.033 1244.03 441.658C1244.03 399.685 1257.94 368.495 1279.22 347.797C1300.52 327.081 1329.36 316.728 1359.45 316.728C1425.67 316.728 1476.45 368.877 1476.45 442.451ZM1976.83 442.451C1976.83 516 1925.28 567.381 1859.83 567.381C1829.74 567.381 1800.91 557.029 1779.61 536.216C1758.33 515.421 1744.42 484.033 1744.42 441.658C1744.42 399.685 1758.33 368.495 1779.61 347.797C1800.91 327.081 1829.74 316.728 1859.83 316.728C1926.05 316.728 1976.83 368.877 1976.83 442.451Z" fill="#262626" stroke="#262626" stroke-width="3.9"/>
</svg>
