<svg width="30" height="30" viewBox="0 0 30 30" fill="none" xmlns="http://www.w3.org/2000/svg">
<path d="M3.11244 13.6556C1.04291 13.6556 0 12.6127 0 10.4617V3.17762C0 1.02662 1.04291 0 3.11244 0H10.5432C12.6127 0 13.6556 1.02662 13.6556 3.17762V10.4617C13.6556 12.6127 12.6127 13.6556 10.5432 13.6556H3.11244ZM19.4731 13.6556C17.3873 13.6556 16.3444 12.6127 16.3444 10.4617V3.17762C16.3444 1.02662 17.3873 0 19.4731 0H26.8876C28.9571 0 30 1.02662 30 3.17762V10.4617C30 12.6127 28.9571 13.6556 26.8876 13.6556H19.4731ZM3.14503 11.358H10.4943C11.0646 11.358 11.358 11.0646 11.358 10.4617V3.17762C11.358 2.59098 11.0646 2.29766 10.4943 2.29766H3.14503C2.57469 2.29766 2.29766 2.59098 2.29766 3.17762V10.4617C2.29766 11.0646 2.57469 11.358 3.14503 11.358ZM19.5057 11.358H26.855C27.4253 11.358 27.7023 11.0646 27.7023 10.4617V3.17762C27.7023 2.59098 27.4253 2.29766 26.855 2.29766H19.5057C18.9191 2.29766 18.642 2.59098 18.642 3.17762V10.4617C18.642 11.0646 18.9191 11.358 19.5057 11.358ZM5.4264 8.53884C5.18197 8.53884 5.10049 8.44106 5.10049 8.16404V5.45899C5.10049 5.19826 5.18197 5.10049 5.4264 5.10049H8.21293C8.44106 5.10049 8.53884 5.19826 8.53884 5.45899V8.16404C8.53884 8.44106 8.44106 8.53884 8.21293 8.53884H5.4264ZM21.8685 8.53884C21.6404 8.53884 21.5589 8.44106 21.5589 8.16404V5.45899C21.5589 5.19826 21.6404 5.10049 21.8685 5.10049H24.6551C24.8995 5.10049 24.9973 5.19826 24.9973 5.45899V8.16404C24.9973 8.44106 24.8995 8.53884 24.6551 8.53884H21.8685ZM3.11244 30C1.04291 30 0 28.9734 0 26.8224V19.522C0 17.3873 1.04291 16.3444 3.11244 16.3444H10.5432C12.6127 16.3444 13.6556 17.3873 13.6556 19.522V26.8224C13.6556 28.9734 12.6127 30 10.5432 30H3.11244ZM17.4525 20.5649C17.208 20.5649 17.1266 20.4671 17.1266 20.1901V17.4851C17.1266 17.2243 17.208 17.1266 17.4525 17.1266H20.239C20.4671 17.1266 20.5649 17.2243 20.5649 17.4851V20.1901C20.5649 20.4671 20.4671 20.5649 20.239 20.5649H17.4525ZM26.1054 20.5649C25.8609 20.5649 25.7795 20.4671 25.7795 20.1901V17.4851C25.7795 17.2243 25.8609 17.1266 26.1054 17.1266H28.8919C29.12 17.1266 29.2178 17.2243 29.2178 17.4851V20.1901C29.2178 20.4671 29.12 20.5649 28.8919 20.5649H26.1054ZM3.14503 27.7023H10.4943C11.0646 27.7023 11.358 27.409 11.358 26.8224V19.5383C11.358 18.9354 11.0646 18.642 10.4943 18.642H3.14503C2.57469 18.642 2.29766 18.9354 2.29766 19.5383V26.8224C2.29766 27.409 2.57469 27.7023 3.14503 27.7023ZM5.4264 24.8995C5.18197 24.8995 5.10049 24.8017 5.10049 24.5084V21.8197C5.10049 21.5589 5.18197 21.4612 5.4264 21.4612H8.21293C8.44106 21.4612 8.53884 21.5589 8.53884 21.8197V24.5084C8.53884 24.8017 8.44106 24.8995 8.21293 24.8995H5.4264ZM21.8197 24.8995C21.5752 24.8995 21.4938 24.8017 21.4938 24.5084V21.8197C21.4938 21.5589 21.5752 21.4612 21.8197 21.4612H24.6062C24.8343 21.4612 24.9321 21.5589 24.9321 21.8197V24.5084C24.9321 24.8017 24.8343 24.8995 24.6062 24.8995H21.8197ZM17.4525 29.2178C17.208 29.2178 17.1266 29.12 17.1266 28.843V26.138C17.1266 25.8772 17.208 25.7795 17.4525 25.7795H20.239C20.4671 25.7795 20.5649 25.8772 20.5649 26.138V28.843C20.5649 29.12 20.4671 29.2178 20.239 29.2178H17.4525ZM26.1054 29.2178C25.8609 29.2178 25.7795 29.12 25.7795 28.843V26.138C25.7795 25.8772 25.8609 25.7795 26.1054 25.7795H28.8919C29.12 25.7795 29.2178 25.8772 29.2178 26.138V28.843C29.2178 29.12 29.12 29.2178 28.8919 29.2178H26.1054Z" fill="#202221" fill-opacity="0.39"/>
</svg>