<svg width="9" height="13" viewBox="0 0 9 13" fill="#9CA3AF" xmlns="http://www.w3.org/2000/svg">
<path d="M4.10938 12.6992C3.29688 12.6992 2.58594 12.5332 1.97656 12.2012C1.36719 11.873 0.892578 11.4121 0.552734 10.8184C0.216797 10.2207 0.0488281 9.52539 0.0488281 8.73242C0.0488281 8.3418 0.0917969 7.95703 0.177734 7.57812C0.263672 7.19922 0.369141 6.8418 0.494141 6.50586C0.619141 6.16992 0.738281 5.87305 0.851562 5.61523C1.16406 4.9082 1.54688 4.18164 2 3.43555C2.45312 2.68945 2.89258 1.98633 3.31836 1.32617C3.42383 1.16992 3.53906 1.04883 3.66406 0.962891C3.78906 0.876953 3.9375 0.833984 4.10938 0.833984C4.28125 0.833984 4.42969 0.876953 4.55469 0.962891C4.68359 1.04883 4.79883 1.16992 4.90039 1.32617C5.33008 1.98633 5.76953 2.68945 6.21875 3.43555C6.67188 4.18164 7.05469 4.9082 7.36719 5.61523C7.48047 5.87305 7.59961 6.16992 7.72461 6.50586C7.84961 6.8418 7.95508 7.19922 8.04102 7.57812C8.12695 7.95703 8.16992 8.3418 8.16992 8.73242C8.16992 9.52539 8 10.2207 7.66016 10.8184C7.32422 11.4121 6.85156 11.873 6.24219 12.2012C5.63281 12.5332 4.92188 12.6992 4.10938 12.6992ZM4.10938 11.7383C4.73047 11.7383 5.27344 11.6133 5.73828 11.3633C6.20312 11.1133 6.56445 10.7637 6.82227 10.3145C7.08398 9.86133 7.21484 9.33398 7.21484 8.73242C7.21484 8.25195 7.13672 7.78516 6.98047 7.33203C6.82812 6.875 6.66992 6.45508 6.50586 6.07227C6.18555 5.30273 5.81836 4.5918 5.4043 3.93945C4.99023 3.28711 4.58008 2.65234 4.17383 2.03516C4.1582 2.00391 4.13867 1.98828 4.11523 1.98828C4.0918 1.98828 4.07031 2.00391 4.05078 2.03516C3.64062 2.65234 3.22852 3.28906 2.81445 3.94531C2.4043 4.59766 2.03516 5.30859 1.70703 6.07812C1.54297 6.45703 1.38477 6.875 1.23242 7.33203C1.08398 7.78516 1.00977 8.25195 1.00977 8.73242C1.00977 9.33398 1.13867 9.86133 1.39648 10.3145C1.6543 10.7637 2.01562 11.1133 2.48047 11.3633C2.94531 11.6133 3.48828 11.7383 4.10938 11.7383Z" fill="#9CA3AF"/>
</svg>
