<svg width="15" height="13" viewBox="0 0 15 13" fill="#9CA3AF" xmlns="http://www.w3.org/2000/svg">
<path d="M2.33398 11.1719C1.7207 11.1719 1.25977 11.0195 0.951172 10.7148C0.646484 10.4141 0.494141 9.96094 0.494141 9.35547V2.20117C0.494141 1.5957 0.646484 1.14258 0.951172 0.841797C1.25977 0.537109 1.7207 0.384766 2.33398 0.384766H10.3379C10.9512 0.384766 11.4102 0.537109 11.7148 0.841797C12.0195 1.14258 12.1719 1.5957 12.1719 2.20117V5.54688C12.0977 5.53516 12.0215 5.52734 11.9434 5.52344C11.8652 5.51953 11.7871 5.51758 11.709 5.51758C11.6309 5.51758 11.5527 5.52148 11.4746 5.5293C11.3965 5.5332 11.3145 5.53906 11.2285 5.54688V3.88281C11.2285 3.61328 11.1582 3.41016 11.0176 3.27344C10.877 3.13281 10.6758 3.0625 10.4141 3.0625H2.24609C1.98828 3.0625 1.78906 3.13281 1.64844 3.27344C1.50781 3.41016 1.4375 3.61328 1.4375 3.88281V9.4082C1.4375 9.67773 1.50781 9.88086 1.64844 10.0176C1.78906 10.1582 1.98828 10.2285 2.24609 10.2285H8.05273C8.0918 10.3965 8.14258 10.5586 8.20508 10.7148C8.27148 10.875 8.34766 11.0273 8.43359 11.1719H2.33398ZM5.1875 5.16602C5.08594 5.16602 5.01367 5.14844 4.9707 5.11328C4.93164 5.07422 4.91211 5.00391 4.91211 4.90234V4.55664C4.91211 4.45508 4.93164 4.38477 4.9707 4.3457C5.01367 4.30664 5.08594 4.28711 5.1875 4.28711H5.5332C5.63477 4.28711 5.70508 4.30664 5.74414 4.3457C5.78711 4.38477 5.80859 4.45508 5.80859 4.55664V4.90234C5.80859 5.00391 5.78711 5.07422 5.74414 5.11328C5.70508 5.14844 5.63477 5.16602 5.5332 5.16602H5.1875ZM7.13867 5.16602C7.0332 5.16602 6.96094 5.14844 6.92188 5.11328C6.88281 5.07422 6.86328 5.00391 6.86328 4.90234V4.55664C6.86328 4.45508 6.88281 4.38477 6.92188 4.3457C6.96094 4.30664 7.0332 4.28711 7.13867 4.28711H7.47852C7.58398 4.28711 7.65625 4.30664 7.69531 4.3457C7.73438 4.38477 7.75391 4.45508 7.75391 4.55664V4.90234C7.75391 5.00391 7.73438 5.07422 7.69531 5.11328C7.65625 5.14844 7.58398 5.16602 7.47852 5.16602H7.13867ZM9.08398 5.16602C8.97852 5.16602 8.90625 5.14844 8.86719 5.11328C8.82812 5.07422 8.80859 5.00391 8.80859 4.90234V4.55664C8.80859 4.45508 8.82812 4.38477 8.86719 4.3457C8.90625 4.30664 8.97852 4.28711 9.08398 4.28711H9.42969C9.53125 4.28711 9.60156 4.30664 9.64062 4.3457C9.67969 4.38477 9.69922 4.45508 9.69922 4.55664V4.90234C9.69922 5.00391 9.67969 5.07422 9.64062 5.11328C9.60156 5.14844 9.53125 5.16602 9.42969 5.16602H9.08398ZM3.24219 7.08203C3.13672 7.08203 3.06445 7.06445 3.02539 7.0293C2.98633 6.99023 2.9668 6.91992 2.9668 6.81836V6.47266C2.9668 6.37109 2.98633 6.30273 3.02539 6.26758C3.06445 6.22852 3.13672 6.20898 3.24219 6.20898H3.58789C3.68945 6.20898 3.75977 6.22852 3.79883 6.26758C3.83789 6.30273 3.85742 6.37109 3.85742 6.47266V6.81836C3.85742 6.91992 3.83789 6.99023 3.79883 7.0293C3.75977 7.06445 3.68945 7.08203 3.58789 7.08203H3.24219ZM5.1875 7.08203C5.08594 7.08203 5.01367 7.06445 4.9707 7.0293C4.93164 6.99023 4.91211 6.91992 4.91211 6.81836V6.47266C4.91211 6.37109 4.93164 6.30273 4.9707 6.26758C5.01367 6.22852 5.08594 6.20898 5.1875 6.20898H5.5332C5.63477 6.20898 5.70508 6.22852 5.74414 6.26758C5.78711 6.30273 5.80859 6.37109 5.80859 6.47266V6.81836C5.80859 6.91992 5.78711 6.99023 5.74414 7.0293C5.70508 7.06445 5.63477 7.08203 5.5332 7.08203H5.1875ZM7.13867 7.08203C7.0332 7.08203 6.96094 7.06445 6.92188 7.0293C6.88281 6.99023 6.86328 6.91992 6.86328 6.81836V6.47266C6.86328 6.37109 6.88281 6.30273 6.92188 6.26758C6.96094 6.22852 7.0332 6.20898 7.13867 6.20898H7.47852C7.58398 6.20898 7.65625 6.22852 7.69531 6.26758C7.73438 6.30273 7.75391 6.37109 7.75391 6.47266V6.81836C7.75391 6.91992 7.73438 6.99023 7.69531 7.0293C7.65625 7.06445 7.58398 7.08203 7.47852 7.08203H7.13867ZM3.24219 9.00391C3.13672 9.00391 3.06445 8.98438 3.02539 8.94531C2.98633 8.90625 2.9668 8.83594 2.9668 8.73438V8.38867C2.9668 8.28711 2.98633 8.21875 3.02539 8.18359C3.06445 8.14453 3.13672 8.125 3.24219 8.125H3.58789C3.68945 8.125 3.75977 8.14453 3.79883 8.18359C3.83789 8.21875 3.85742 8.28711 3.85742 8.38867V8.73438C3.85742 8.83594 3.83789 8.90625 3.79883 8.94531C3.75977 8.98438 3.68945 9.00391 3.58789 9.00391H3.24219ZM5.1875 9.00391C5.08594 9.00391 5.01367 8.98438 4.9707 8.94531C4.93164 8.90625 4.91211 8.83594 4.91211 8.73438V8.38867C4.91211 8.28711 4.93164 8.21875 4.9707 8.18359C5.01367 8.14453 5.08594 8.125 5.1875 8.125H5.5332C5.63477 8.125 5.70508 8.14453 5.74414 8.18359C5.78711 8.21875 5.80859 8.28711 5.80859 8.38867V8.73438C5.80859 8.83594 5.78711 8.90625 5.74414 8.94531C5.70508 8.98438 5.63477 9.00391 5.5332 9.00391H5.1875ZM7.13867 9.00391C7.0332 9.00391 6.96094 8.98438 6.92188 8.94531C6.88281 8.90625 6.86328 8.83594 6.86328 8.73438V8.38867C6.86328 8.28711 6.88281 8.21875 6.92188 8.18359C6.96094 8.14453 7.0332 8.125 7.13867 8.125H7.47852C7.58398 8.125 7.65625 8.14453 7.69531 8.18359C7.73438 8.21875 7.75391 8.28711 7.75391 8.38867V8.73438C7.75391 8.83594 7.73438 8.90625 7.69531 8.94531C7.65625 8.98438 7.58398 9.00391 7.47852 9.00391H7.13867ZM11.709 12.2734C11.3027 12.2734 10.9199 12.1953 10.5605 12.0391C10.2012 11.8867 9.88477 11.6738 9.61133 11.4004C9.33789 11.127 9.12305 10.8105 8.9668 10.4512C8.81055 10.0918 8.73242 9.70703 8.73242 9.29688C8.73242 8.88672 8.81055 8.50391 8.9668 8.14844C9.12305 7.78906 9.33789 7.47266 9.61133 7.19922C9.88477 6.92188 10.2012 6.70703 10.5605 6.55469C10.9199 6.39844 11.3027 6.32031 11.709 6.32031C12.1191 6.32031 12.5039 6.39844 12.8633 6.55469C13.2227 6.70703 13.5391 6.91992 13.8125 7.19336C14.0859 7.4668 14.2988 7.7832 14.4512 8.14258C14.6074 8.50195 14.6855 8.88672 14.6855 9.29688C14.6855 9.70312 14.6074 10.0859 14.4512 10.4453C14.2949 10.8047 14.0781 11.1211 13.8008 11.3945C13.5273 11.668 13.2109 11.8828 12.8516 12.0391C12.4922 12.1953 12.1113 12.2734 11.709 12.2734ZM11.7031 11.1953C11.8398 11.1953 11.957 11.1465 12.0547 11.0488C12.1523 10.9551 12.2012 10.8398 12.2012 10.7031C12.2012 10.5703 12.1523 10.4531 12.0547 10.3516C11.9609 10.2539 11.8438 10.2051 11.7031 10.2051C11.5703 10.2051 11.4551 10.2539 11.3574 10.3516C11.2598 10.4492 11.2109 10.5664 11.2109 10.7031C11.2109 10.8398 11.2598 10.9551 11.3574 11.0488C11.4551 11.1465 11.5703 11.1953 11.7031 11.1953ZM11.709 9.80078C11.8105 9.80078 11.8926 9.76953 11.9551 9.70703C12.0215 9.64062 12.0566 9.55859 12.0605 9.46094L12.1074 7.78516C12.1113 7.66406 12.0762 7.56641 12.002 7.49219C11.9277 7.41797 11.8301 7.38086 11.709 7.38086C11.584 7.38086 11.4844 7.41797 11.4102 7.49219C11.3359 7.56641 11.3008 7.66406 11.3047 7.78516L11.3516 9.46094C11.3555 9.55859 11.3887 9.64062 11.4512 9.70703C11.5176 9.76953 11.6035 9.80078 11.709 9.80078Z" fill="#9CA3AF"/>
</svg>
