<svg width="12" height="13" viewBox="0 0 12 13" fill="#9CA3AF" xmlns="http://www.w3.org/2000/svg">
<path d="M5.79688 11.0117L5.84961 6.33594C5.85352 6.22656 5.89844 6.15625 5.98438 6.125C6.07422 6.08984 6.15625 6.10938 6.23047 6.18359L9.42969 9.47656C9.51172 9.55859 9.53125 9.64258 9.48828 9.72852C9.44531 9.81445 9.36914 9.86133 9.25977 9.86914L8 9.91602L9.04883 12.3535C9.07617 12.4082 9.08008 12.4629 9.06055 12.5176C9.04492 12.5723 9.00977 12.6113 8.95508 12.6348L8.375 12.8691C8.32031 12.8887 8.26758 12.8867 8.2168 12.8633C8.16602 12.8398 8.12891 12.8008 8.10547 12.7461L7.10352 10.2734L6.20703 11.1699C6.13281 11.2402 6.04492 11.2598 5.94336 11.2285C5.8418 11.2012 5.79297 11.1289 5.79688 11.0117ZM0.0488281 6.76953C0.0488281 5.95312 0.205078 5.18555 0.517578 4.4668C0.830078 3.74414 1.25977 3.10742 1.80664 2.55664C2.35742 2.00586 2.99219 1.57422 3.71094 1.26172C4.43359 0.949219 5.20312 0.792969 6.01953 0.792969C6.83594 0.792969 7.60547 0.949219 8.32812 1.26172C9.05078 1.57422 9.6875 2.00586 10.2383 2.55664C10.7891 3.10742 11.2207 3.74414 11.5332 4.4668C11.8457 5.18555 12.002 5.95312 12.002 6.76953C12.002 6.94141 11.9531 7.07227 11.8555 7.16211C11.7578 7.24805 11.6504 7.29102 11.5332 7.29102C11.4043 7.29102 11.2832 7.24805 11.1699 7.16211C11.0605 7.07617 11.0059 6.94531 11.0059 6.76953C11.0059 6.07812 10.877 5.43164 10.6191 4.83008C10.3613 4.22852 10.0039 3.69922 9.54688 3.24219C9.09375 2.78516 8.56445 2.42969 7.95898 2.17578C7.35742 1.91797 6.71094 1.78906 6.01953 1.78906C5.32812 1.78906 4.68164 1.91797 4.08008 2.17578C3.47852 2.42969 2.95117 2.78516 2.49805 3.24219C2.04492 3.69922 1.68945 4.22852 1.43164 4.83008C1.17773 5.43164 1.05078 6.07812 1.05078 6.76953C1.05078 7.39453 1.15625 7.98633 1.36719 8.54492C1.58203 9.09961 1.87695 9.5957 2.25195 10.0332C2.63086 10.4707 3.06641 10.8262 3.55859 11.0996C3.69531 11.1777 3.78711 11.2676 3.83398 11.3691C3.88086 11.4746 3.89258 11.5762 3.86914 11.6738C3.84961 11.7715 3.80273 11.8555 3.72852 11.9258C3.6582 11.9961 3.56836 12.0371 3.45898 12.0488C3.34961 12.0605 3.23438 12.0332 3.11328 11.9668C2.52344 11.6426 1.99609 11.2168 1.53125 10.6895C1.07031 10.1621 0.707031 9.56445 0.441406 8.89648C0.179688 8.22461 0.0488281 7.51562 0.0488281 6.76953Z" fill="#9CA3AF"/>
</svg>
