<svg width="15" height="12" viewBox="0 0 15 12" fill="#9CA3AF" xmlns="http://www.w3.org/2000/svg">
<path d="M1.8418 9.80078C1.42383 9.80078 1.09375 9.68164 0.851562 9.44336C0.613281 9.20117 0.494141 8.86914 0.494141 8.44727V1.42188C0.494141 1 0.613281 0.669922 0.851562 0.431641C1.09375 0.193359 1.42383 0.0742188 1.8418 0.0742188H13.1094C13.5312 0.0742188 13.8613 0.193359 14.0996 0.431641C14.3418 0.669922 14.4629 1 14.4629 1.42188V8.44727C14.4629 8.86914 14.3418 9.20117 14.0996 9.44336C13.8613 9.68164 13.5312 9.80078 13.1094 9.80078H1.8418ZM1.68945 7.2168H13.2617C13.4336 7.2168 13.5195 7.13281 13.5195 6.96484V1.43945C13.5195 1.30664 13.4805 1.20313 13.4023 1.12891C13.3281 1.05469 13.2266 1.01758 13.0977 1.01758H1.85938C1.73047 1.01758 1.62695 1.05469 1.54883 1.12891C1.47461 1.20313 1.4375 1.30664 1.4375 1.43945V6.96484C1.4375 7.13281 1.52148 7.2168 1.68945 7.2168ZM5.62695 11.1953V9.72461H9.33008V11.1953H5.62695ZM5.5918 11.8809C5.46289 11.8809 5.35156 11.834 5.25781 11.7402C5.16406 11.6504 5.11719 11.5391 5.11719 11.4062C5.11719 11.2734 5.16406 11.1602 5.25781 11.0664C5.35156 10.9766 5.46289 10.9316 5.5918 10.9316H9.36523C9.49414 10.9316 9.60352 10.9766 9.69336 11.0664C9.78711 11.1602 9.83398 11.2734 9.83398 11.4062C9.83398 11.5391 9.78711 11.6504 9.69336 11.7402C9.60352 11.834 9.49414 11.8809 9.36523 11.8809H5.5918Z" fill="#9CA3AF"/>
</svg>
