<svg width="13" height="14" viewBox="0 0 13 14" fill="#9CA3AF" xmlns="http://www.w3.org/2000/svg">
<path d="M1.31445 10.4668C1.04883 10.3145 0.845703 10.1387 0.705078 9.93945C0.564453 9.74023 0.494141 9.43164 0.494141 9.01367V4.37305C0.494141 4.06836 0.550781 3.81641 0.664062 3.61719C0.78125 3.41406 0.964844 3.24219 1.21484 3.10156L5.35742 0.746094C5.71289 0.542969 6.06445 0.441406 6.41211 0.441406C6.75977 0.441406 7.10938 0.542969 7.46094 0.746094L11.6094 3.10156C11.8555 3.24219 12.0352 3.41406 12.1484 3.61719C12.2656 3.81641 12.3242 4.06836 12.3242 4.37305V9.01367C12.3242 9.43164 12.2539 9.74023 12.1133 9.93945C11.9766 10.1387 11.7734 10.3145 11.5039 10.4668L6.89844 13.0801C6.73047 13.1738 6.56641 13.2207 6.40625 13.2207C6.25 13.2207 6.08984 13.1738 5.92578 13.0801L1.31445 10.4668ZM1.8418 9.69336L5.94922 12.0312V7.16797L1.38477 4.56055V8.98438C1.38477 9.14453 1.41797 9.2793 1.48438 9.38867C1.55078 9.49805 1.66992 9.59961 1.8418 9.69336ZM10.9824 9.69336C11.1504 9.59961 11.2676 9.49805 11.334 9.38867C11.4004 9.2793 11.4336 9.14453 11.4336 8.98438V4.56055L6.86914 7.16797V12.0312L10.9824 9.69336ZM6.41211 6.34766L8.22266 5.32227L3.69922 2.75L1.88867 3.78711L6.41211 6.34766ZM9.16602 4.78906L10.9355 3.78711L7.07422 1.58398C6.63672 1.33008 6.19531 1.33008 5.75 1.58398L4.625 2.22266L9.16602 4.78906Z" fill="#9CA3AF"/>
</svg>
