<svg width="18" height="10" viewBox="0 0 18 10" fill="#9CA3AF" xmlns="http://www.w3.org/2000/svg">
<path d="M8.60938 0.792969C9.55859 0.792969 10.4609 0.9375 11.3164 1.22656C12.1719 1.51172 12.957 1.91797 13.6719 2.44531C14.3867 2.96875 15.0059 3.58789 15.5293 4.30273C16.0527 5.01367 16.457 5.79883 16.7422 6.6582C17.0312 7.51367 17.1758 8.41406 17.1758 9.35938C17.1758 9.46875 17.1387 9.56055 17.0645 9.63477C16.9902 9.70898 16.9004 9.74609 16.7949 9.74609C16.6855 9.74609 16.5938 9.70898 16.5195 9.63477C16.4453 9.56055 16.4082 9.46875 16.4082 9.35938C16.4082 8.5 16.2773 7.68164 16.0156 6.9043C15.7539 6.12305 15.3828 5.4082 14.9023 4.75977C14.4258 4.10742 13.8633 3.54297 13.2148 3.06641C12.5664 2.58984 11.8516 2.2207 11.0703 1.95898C10.293 1.69336 9.47266 1.56055 8.60938 1.56055C7.75 1.56055 6.92969 1.69336 6.14844 1.95898C5.37109 2.2207 4.65625 2.58984 4.00391 3.06641C3.35547 3.54297 2.79297 4.10742 2.31641 4.75977C1.83984 5.4082 1.4707 6.12305 1.20898 6.9043C0.947266 7.68164 0.816406 8.5 0.816406 9.35938C0.816406 9.46875 0.777344 9.56055 0.699219 9.63477C0.625 9.70898 0.535156 9.74609 0.429688 9.74609C0.324219 9.74609 0.234375 9.70898 0.160156 9.63477C0.0859375 9.56055 0.0488281 9.46875 0.0488281 9.35938C0.0488281 8.41406 0.191406 7.51367 0.476562 6.6582C0.765625 5.79883 1.17188 5.01367 1.69531 4.30273C2.21875 3.58789 2.83594 2.96875 3.54688 2.44531C4.26172 1.91797 5.04688 1.51172 5.90234 1.22656C6.75781 0.9375 7.66016 0.792969 8.60938 0.792969ZM8.60938 2.07617C9.41797 2.07617 10.1855 2.19922 10.9121 2.44531C11.6426 2.6875 12.3105 3.03125 12.916 3.47656C13.5215 3.92188 14.0469 4.44922 14.4922 5.05859C14.9375 5.66406 15.2832 6.33203 15.5293 7.0625C15.7754 7.78906 15.8984 8.55469 15.8984 9.35938C15.8984 9.46875 15.8594 9.56055 15.7812 9.63477C15.707 9.70898 15.6172 9.74609 15.5117 9.74609C15.4023 9.74609 15.3105 9.70898 15.2363 9.63477C15.166 9.56055 15.1309 9.46875 15.1309 9.35938C15.1309 8.64062 15.0195 7.95703 14.7969 7.30859C14.5781 6.65625 14.2695 6.05859 13.8711 5.51562C13.4727 4.97266 13.002 4.50195 12.459 4.10352C11.916 3.70117 11.3184 3.39062 10.666 3.17188C10.0137 2.95312 9.32812 2.84375 8.60938 2.84375C7.89062 2.84375 7.20508 2.95312 6.55273 3.17188C5.9043 3.39062 5.30859 3.70117 4.76562 4.10352C4.22266 4.50195 3.75195 4.97266 3.35352 5.51562C2.95508 6.05859 2.64648 6.65625 2.42773 7.30859C2.20898 7.95703 2.09961 8.64062 2.09961 9.35938C2.09961 9.46875 2.06055 9.56055 1.98242 9.63477C1.9082 9.70898 1.81641 9.74609 1.70703 9.74609C1.60156 9.74609 1.51172 9.70898 1.4375 9.63477C1.36719 9.56055 1.33203 9.46875 1.33203 9.35938C1.33203 8.55469 1.45312 7.78906 1.69531 7.0625C1.94141 6.33203 2.28516 5.66406 2.72656 5.05859C3.17188 4.44922 3.69727 3.92188 4.30273 3.47656C4.91211 3.03125 5.58008 2.6875 6.30664 2.44531C7.03711 2.19922 7.80469 2.07617 8.60938 2.07617ZM8.60938 3.35352C9.44141 3.35352 10.2188 3.50977 10.9414 3.82227C11.668 4.13086 12.3066 4.56055 12.8574 5.11133C13.4082 5.66211 13.8379 6.30078 14.1465 7.02734C14.459 7.75391 14.6152 8.53125 14.6152 9.35938C14.6152 9.46875 14.5762 9.56055 14.498 9.63477C14.4238 9.70898 14.334 9.74609 14.2285 9.74609C14.1191 9.74609 14.0273 9.70898 13.9531 9.63477C13.8828 9.56055 13.8477 9.46875 13.8477 9.35938C13.8477 8.64062 13.7109 7.96484 13.4375 7.33203C13.168 6.69922 12.793 6.14258 12.3125 5.66211C11.832 5.18164 11.2754 4.80469 10.6426 4.53125C10.0098 4.25781 9.33203 4.12109 8.60938 4.12109C7.88672 4.12109 7.20898 4.25781 6.57617 4.53125C5.94336 4.80469 5.38672 5.18164 4.90625 5.66211C4.42969 6.14258 4.05664 6.69922 3.78711 7.33203C3.51758 7.96484 3.38281 8.64062 3.38281 9.35938C3.38281 9.46875 3.34375 9.56055 3.26562 9.63477C3.19141 9.70898 3.09961 9.74609 2.99023 9.74609C2.88477 9.74609 2.79492 9.70898 2.7207 9.63477C2.65039 9.56055 2.61523 9.46875 2.61523 9.35938C2.61523 8.53125 2.76953 7.75391 3.07812 7.02734C3.38672 6.30078 3.81445 5.66211 4.36133 5.11133C4.91211 4.56055 5.54883 4.13086 6.27148 3.82227C6.99805 3.50977 7.77734 3.35352 8.60938 3.35352ZM8.60938 4.63672C9.26562 4.63672 9.87891 4.75977 10.4492 5.00586C11.0195 5.24805 11.5195 5.58594 11.9492 6.01953C12.3828 6.44922 12.7207 6.95117 12.9629 7.52539C13.209 8.0957 13.332 8.70703 13.332 9.35938C13.332 9.46875 13.2949 9.56055 13.2207 9.63477C13.1465 9.70898 13.0566 9.74609 12.9512 9.74609C12.8418 9.74609 12.75 9.70898 12.6758 9.63477C12.6016 9.56055 12.5645 9.46875 12.5645 9.35938C12.5645 8.81641 12.4609 8.30664 12.2539 7.83008C12.0508 7.34961 11.7676 6.92773 11.4043 6.56445C11.041 6.20117 10.6191 5.91797 10.1387 5.71484C9.66211 5.50781 9.15234 5.4043 8.60938 5.4043C8.06641 5.4043 7.55469 5.50781 7.07422 5.71484C6.59766 5.91797 6.17773 6.20117 5.81445 6.56445C5.45508 6.92773 5.17188 7.34961 4.96484 7.83008C4.76172 8.30664 4.66016 8.81641 4.66016 9.35938C4.66016 9.46875 4.62109 9.56055 4.54297 9.63477C4.46875 9.70898 4.37891 9.74609 4.27344 9.74609C4.16797 9.74609 4.07812 9.70898 4.00391 9.63477C3.92969 9.56055 3.89258 9.46875 3.89258 9.35938C3.89258 8.70703 4.01367 8.0957 4.25586 7.52539C4.50195 6.95117 4.83984 6.44922 5.26953 6.01953C5.69922 5.58594 6.19922 5.24805 6.76953 5.00586C7.33984 4.75977 7.95312 4.63672 8.60938 4.63672ZM8.60938 5.91992C9.08594 5.91992 9.53125 6.00977 9.94531 6.18945C10.3633 6.36523 10.7285 6.61133 11.041 6.92773C11.3574 7.24023 11.6035 7.60547 11.7793 8.02344C11.959 8.4375 12.0488 8.88281 12.0488 9.35938C12.0488 9.46875 12.0117 9.56055 11.9375 9.63477C11.8633 9.70898 11.7734 9.74609 11.668 9.74609C11.5586 9.74609 11.4668 9.70898 11.3926 9.63477C11.3184 9.56055 11.2812 9.46875 11.2812 9.35938C11.2812 8.87109 11.1602 8.42578 10.918 8.02344C10.6797 7.61719 10.3574 7.29297 9.95117 7.05078C9.54883 6.80859 9.10156 6.6875 8.60938 6.6875C8.11719 6.6875 7.66992 6.80859 7.26758 7.05078C6.86523 7.29297 6.54297 7.61719 6.30078 8.02344C6.0625 8.42578 5.94336 8.87109 5.94336 9.35938C5.94336 9.46875 5.9043 9.56055 5.82617 9.63477C5.75195 9.70898 5.66211 9.74609 5.55664 9.74609C5.44727 9.74609 5.35547 9.70898 5.28125 9.63477C5.21094 9.56055 5.17578 9.46875 5.17578 9.35938C5.17578 8.88281 5.26367 8.4375 5.43945 8.02344C5.61914 7.60547 5.86523 7.24023 6.17773 6.92773C6.49023 6.61133 6.85352 6.36523 7.26758 6.18945C7.68555 6.00977 8.13281 5.91992 8.60938 5.91992Z" fill="#9CA3AF"/>
</svg>
