<svg width="12" height="13" viewBox="0 0 12 13" fill="#9CA3AF" xmlns="http://www.w3.org/2000/svg">
<path d="M6.96289 7.61328C6.80664 7.76562 6.63477 7.85742 6.44727 7.88867C6.25977 7.91992 6.07812 7.89648 5.90234 7.81836C5.72656 7.73633 5.57422 7.60156 5.44531 7.41406L3.2832 4.31445C3.2168 4.2168 3.19727 4.12695 3.22461 4.04492C3.25586 3.95898 3.31445 3.90039 3.40039 3.86914C3.48633 3.83789 3.57812 3.85547 3.67578 3.92188L6.77539 6.08984C6.95898 6.21875 7.08984 6.37109 7.16797 6.54688C7.25 6.72266 7.27539 6.9043 7.24414 7.0918C7.21289 7.27539 7.11914 7.44922 6.96289 7.61328ZM6.02539 12.7461C5.20898 12.7461 4.43945 12.5898 3.7168 12.2773C2.99805 11.9648 2.36328 11.5332 1.8125 10.9824C1.26172 10.4316 0.830078 9.79688 0.517578 9.07812C0.205078 8.35547 0.0488281 7.58594 0.0488281 6.76953C0.0488281 5.95312 0.205078 5.18555 0.517578 4.4668C0.830078 3.74414 1.25977 3.10742 1.80664 2.55664C2.35742 2.00586 2.99219 1.57422 3.71094 1.26172C4.43359 0.949219 5.20312 0.792969 6.01953 0.792969C6.83594 0.792969 7.60547 0.949219 8.32812 1.26172C9.05078 1.57422 9.6875 2.00586 10.2383 2.55664C10.7891 3.10742 11.2207 3.74414 11.5332 4.4668C11.8457 5.18555 12.002 5.95312 12.002 6.76953C12.002 7.58594 11.8457 8.35547 11.5332 9.07812C11.2207 9.79688 10.7891 10.4316 10.2383 10.9824C9.6875 11.5332 9.05078 11.9648 8.32812 12.2773C7.60938 12.5898 6.8418 12.7461 6.02539 12.7461ZM6.02539 11.75C6.7168 11.75 7.36328 11.6211 7.96484 11.3633C8.56641 11.1055 9.0957 10.75 9.55273 10.2969C10.0098 9.83984 10.3652 9.31055 10.6191 8.70898C10.877 8.10742 11.0059 7.46094 11.0059 6.76953C11.0059 6.07812 10.877 5.43164 10.6191 4.83008C10.3613 4.22852 10.0039 3.69922 9.54688 3.24219C9.09375 2.78516 8.56445 2.42969 7.95898 2.17578C7.35742 1.91797 6.71094 1.78906 6.01953 1.78906C5.32812 1.78906 4.68164 1.91797 4.08008 2.17578C3.47852 2.42969 2.95117 2.78516 2.49805 3.24219C2.04492 3.69922 1.68945 4.22852 1.43164 4.83008C1.17773 5.43164 1.05078 6.07812 1.05078 6.76953C1.05078 7.46094 1.17773 8.10742 1.43164 8.70898C1.68945 9.31055 2.04492 9.83984 2.49805 10.2969C2.95508 10.75 3.48438 11.1055 4.08594 11.3633C4.6875 11.6211 5.33398 11.75 6.02539 11.75Z" fill="#9CA3AF"/>
</svg>
